<svg width="72" height="72" viewBox="0 0 72 72" fill="none" xmlns="http://www.w3.org/2000/svg">
<circle cx="36" cy="36" r="36" fill="#F1FEF2"/>
<g clip-path="url(#clip0_4534_166)">
<path d="M51.3 20.7H49.3875V18.7875C49.3875 17.64 48.6225 16.875 47.475 16.875C46.3275 16.875 45.5625 17.64 45.5625 18.7875V20.7H26.4375V18.7875C26.4375 17.64 25.6725 16.875 24.525 16.875C23.3775 16.875 22.6125 17.64 22.6125 18.7875V20.7H18.7875C17.8312 20.7 16.875 21.465 16.875 22.6125V49.3875C16.875 50.535 17.8312 51.3 18.7875 51.3H30.4537C29.115 49.005 28.35 46.3275 28.35 43.65C28.35 35.235 35.235 28.35 43.65 28.35C47.2837 28.35 50.535 29.6887 53.2125 31.7925V22.6125C53.2125 21.6562 52.2562 20.7 51.3 20.7Z" fill="#7CBCA6"/>
<path d="M43.6508 31.6123C37.3395 31.6123 32.1758 36.7761 32.1758 43.0873C32.1758 49.3986 37.3395 54.5623 43.6508 54.5623C49.962 54.5623 55.1258 49.3986 55.1258 43.0873C55.1258 36.7761 49.962 31.6123 43.6508 31.6123Z" fill="#7CBCA6"/>
<rect x="40.5" y="38.25" width="2.25" height="7.875" fill="#F1FEF2"/>
<rect x="40.5" y="43.875" width="7.875" height="2.25" fill="#F1FEF2"/>
</g>
<defs>
<clipPath id="clip0_4534_166">
<rect width="38.25" height="38.25" fill="white" transform="translate(16.875 16.875)"/>
</clipPath>
</defs>
</svg>
