<svg width="72" height="72" viewBox="0 0 72 72" fill="none" xmlns="http://www.w3.org/2000/svg">
<circle cx="36" cy="36" r="36" fill="#F1FEF2"/>
<path d="M41.625 26.156H47.9772C48.0329 26.156 48.0873 26.1396 48.1335 26.1086C48.1798 26.0777 48.2158 26.0338 48.2371 25.9824C48.2584 25.931 48.264 25.8745 48.2531 25.8199C48.2422 25.7654 48.2155 25.7152 48.1761 25.6759L40.6989 18.1986C40.6596 18.1593 40.6094 18.1325 40.5549 18.1216C40.5003 18.1108 40.4438 18.1163 40.3924 18.1376C40.341 18.1589 40.2971 18.195 40.2661 18.2412C40.2352 18.2875 40.2187 18.3418 40.2188 18.3975V24.7498C40.2188 25.1228 40.3669 25.4804 40.6306 25.7442C40.8944 26.0079 41.252 26.156 41.625 26.156Z" fill="#7CBCA6"/>
<path d="M48.6562 28.9688H41.625C40.5061 28.9688 39.4331 28.5243 38.6419 27.7331C37.8507 26.9419 37.4062 25.8689 37.4062 24.75V17.7223C37.4068 17.538 37.371 17.3553 37.3009 17.1848C37.2307 17.0143 37.1277 16.8593 36.9976 16.7287C36.8674 16.5981 36.7128 16.4944 36.5426 16.4236C36.3724 16.3528 36.1899 16.3163 36.0055 16.3161C32.7116 16.3144 24.75 16.3125 24.75 16.3125C24.0041 16.3125 23.2887 16.6088 22.7613 17.1363C22.2338 17.6637 21.9375 18.3791 21.9375 19.125V52.875C21.9375 53.6209 22.2338 54.3363 22.7613 54.8637C23.2887 55.3912 24.0041 55.6875 24.75 55.6875H47.25C47.9959 55.6875 48.7113 55.3912 49.2387 54.8637C49.7662 54.3363 50.0625 53.6209 50.0625 52.875V30.375C50.0625 30.002 49.9143 29.6444 49.6506 29.3806C49.3869 29.1169 49.0292 28.9688 48.6562 28.9688Z" fill="#7CBCA6"/>
<rect x="28.125" y="34.875" width="15.75" height="2.25" fill="#F1FEF2"/>
<rect x="28.125" y="39.375" width="15.75" height="2.25" fill="#F1FEF2"/>
</svg>
