<svg width="187" height="168" viewBox="0 0 187 168" fill="none" xmlns="http://www.w3.org/2000/svg">
<g clip-path="url(#clip0_93_1819)">
<path d="M185.421 85.1106L165.155 76.5079C164.626 76.2811 164.029 76.2735 163.495 76.4869C162.96 76.7003 162.533 77.1171 162.306 77.6456L156.576 91.1514C156.464 91.4136 156.405 91.6954 156.402 91.9805C156.399 92.2657 156.452 92.5487 156.559 92.8133C156.665 93.0778 156.823 93.3188 157.022 93.5224C157.222 93.726 157.46 93.8883 157.722 93.9998L163.984 96.6764L166.12 102.406L171.719 99.9997L177.989 102.668C178.518 102.895 179.115 102.902 179.649 102.689C180.183 102.476 180.611 102.059 180.838 101.53L186.567 88.0246C186.688 87.7587 186.755 87.4712 186.763 87.1791C186.77 86.8871 186.719 86.5964 186.612 86.3245C186.505 86.0526 186.345 85.805 186.14 85.5965C185.936 85.3879 185.691 85.2227 185.421 85.1106Z" fill="#EEFFF1"/>
<path d="M164.868 86.8868C165.017 86.5922 165.249 86.3478 165.535 86.1837C165.822 86.0197 166.15 85.9433 166.479 85.964C166.809 85.9848 167.125 86.1017 167.388 86.3003C167.652 86.499 167.851 86.7706 167.962 87.0815C168.072 87.3925 168.089 87.729 168.011 88.0495C167.932 88.37 167.761 88.6603 167.518 88.8845C167.276 89.1086 166.974 89.2567 166.648 89.3105C166.322 89.3643 165.988 89.3213 165.687 89.1869C165.473 89.0998 165.281 88.9687 165.121 88.8021C164.962 88.6355 164.84 88.4371 164.763 88.22C164.685 88.0029 164.655 87.7719 164.673 87.5422C164.691 87.3124 164.758 87.0891 164.868 86.8868Z" fill="url(#paint0_linear_93_1819)"/>
<path d="M170.295 89.1869C170.372 88.9682 170.494 88.7679 170.652 88.5986C170.81 88.4292 171.002 88.2946 171.215 88.203C171.428 88.1115 171.658 88.0651 171.89 88.0668C172.122 88.0685 172.351 88.1182 172.562 88.2128C172.896 88.3376 173.185 88.5594 173.391 88.8496C173.598 89.1399 173.713 89.4853 173.721 89.8415C173.73 90.1976 173.632 90.5481 173.439 90.8479C173.247 91.1478 172.969 91.3832 172.642 91.5238C172.314 91.6644 171.953 91.7038 171.603 91.637C171.253 91.5701 170.931 91.4001 170.678 91.1487C170.426 90.8973 170.255 90.5762 170.186 90.2265C170.118 89.8769 170.156 89.5148 170.295 89.1869Z" fill="url(#paint1_linear_93_1819)"/>
<path d="M175.648 91.487C175.723 91.2674 175.842 91.0656 175.998 90.8942C176.155 90.7228 176.345 90.5855 176.557 90.4909C176.769 90.3963 176.998 90.3464 177.23 90.3444C177.462 90.3424 177.691 90.3883 177.905 90.4792C178.118 90.5701 178.311 90.7041 178.47 90.8728C178.629 91.0415 178.752 91.2412 178.831 91.4595C178.909 91.6777 178.942 91.9099 178.927 92.1414C178.911 92.3729 178.849 92.5987 178.742 92.8048C178.667 93.0244 178.548 93.2263 178.392 93.3977C178.235 93.5691 178.045 93.7063 177.833 93.8009C177.622 93.8955 177.392 93.9454 177.16 93.9474C176.928 93.9494 176.699 93.9035 176.485 93.8126C176.272 93.7217 176.079 93.5877 175.92 93.4191C175.761 93.2504 175.638 93.0507 175.559 92.8324C175.481 92.6141 175.448 92.3819 175.463 92.1504C175.479 91.9189 175.541 91.6931 175.648 91.487Z" fill="url(#paint2_linear_93_1819)"/>
<path d="M31.1941 37.7342L16.4606 44.2251C16.2693 44.3078 16.0963 44.4276 15.9515 44.5774C15.8067 44.7273 15.6929 44.9044 15.6169 45.0984C15.5408 45.2924 15.5038 45.4995 15.5082 45.7079C15.5125 45.9162 15.558 46.1217 15.642 46.3123L19.9639 56.1347C20.0457 56.3267 20.165 56.5005 20.3147 56.6459C20.4644 56.7913 20.6416 56.9054 20.8359 56.9816C21.0302 57.0578 21.2377 57.0946 21.4464 57.0897C21.655 57.0848 21.8606 57.0384 22.0511 56.9532L26.6103 54.9478L30.703 56.6668L32.2091 52.4759L36.7683 50.4705C36.9595 50.3878 37.1326 50.268 37.2774 50.1181C37.4222 49.9683 37.5359 49.7912 37.612 49.5972C37.6881 49.4032 37.725 49.1961 37.7207 48.9877C37.7164 48.7794 37.6709 48.5739 37.5868 48.3832L33.265 38.5609C33.0976 38.1787 32.7866 37.8776 32.399 37.7229C32.0115 37.5682 31.5787 37.5723 31.1941 37.7342Z" fill="#EEFFF1"/>
<path d="M21.8793 49.5783C21.7964 49.353 21.7813 49.1083 21.836 48.8746C21.8906 48.6408 22.0126 48.4283 22.1868 48.2631C22.361 48.098 22.5798 47.9875 22.8162 47.9454C23.0525 47.9033 23.296 47.9314 23.5165 48.0262C23.7371 48.1211 23.9249 48.2784 24.057 48.4789C24.189 48.6794 24.2593 48.9142 24.2593 49.1543C24.2593 49.3943 24.1889 49.6291 24.0568 49.8296C23.9248 50.03 23.7369 50.1874 23.5163 50.2822C23.3635 50.3505 23.1981 50.3864 23.0306 50.3876C22.8632 50.3888 22.6973 50.3553 22.5435 50.2891C22.3897 50.223 22.2512 50.1256 22.1369 50.0033C22.0226 49.8809 21.9348 49.7362 21.8793 49.5783Z" fill="url(#paint3_linear_93_1819)"/>
<path d="M25.7917 47.8593C25.7141 47.709 25.6685 47.5442 25.6576 47.3753C25.6467 47.2064 25.6708 47.0371 25.7284 46.878C25.7861 46.7189 25.876 46.5735 25.9926 46.4507C26.1091 46.328 26.2497 46.2307 26.4056 46.165C26.7226 46.0282 27.0809 46.023 27.4017 46.1504C27.7225 46.2778 27.9796 46.5274 28.1164 46.8444C28.2531 47.1613 28.2584 47.5196 28.131 47.8404C28.0036 48.1613 27.7539 48.4183 27.437 48.5551C27.2841 48.6237 27.1186 48.66 26.951 48.6618C26.7834 48.6636 26.6172 48.6309 26.4628 48.5656C26.3084 48.5003 26.1692 48.4039 26.0537 48.2824C25.9382 48.1609 25.8491 48.0169 25.7917 47.8593Z" fill="url(#paint4_linear_93_1819)"/>
<path d="M29.7125 46.1322C29.6296 45.907 29.6146 45.6623 29.6692 45.4286C29.7239 45.1948 29.8459 44.9822 30.0201 44.8171C30.1943 44.6519 30.4131 44.5415 30.6494 44.4994C30.8858 44.4573 31.1292 44.4854 31.3498 44.5802C31.5703 44.675 31.7582 44.8324 31.8902 45.0329C32.0222 45.2334 32.0926 45.4682 32.0926 45.7082C32.0925 45.9483 32.0221 46.1831 31.8901 46.3835C31.758 46.584 31.5701 46.7414 31.3496 46.8362C31.1966 46.9032 31.0314 46.9381 30.8643 46.9387C30.6972 46.9393 30.5318 46.9055 30.3783 46.8395C30.2248 46.7735 30.0865 46.6767 29.9719 46.555C29.8574 46.4333 29.7691 46.2894 29.7125 46.1322Z" fill="url(#paint5_linear_93_1819)"/>
<path d="M17.312 119.89L5.77072 117.524C5.62232 117.493 5.46923 117.492 5.32034 117.521C5.17145 117.549 5.02971 117.607 4.90333 117.691C4.77695 117.775 4.66844 117.883 4.58409 118.009C4.49975 118.135 4.44124 118.276 4.41196 118.425L2.84857 126.086C2.78804 126.387 2.8487 126.699 3.01734 126.955C3.18598 127.211 3.44894 127.39 3.74895 127.453L7.30956 128.173L9.03665 130.932L11.6969 129.074L15.2575 129.794C15.4059 129.825 15.559 129.826 15.7078 129.798C15.8567 129.769 15.9985 129.711 16.1249 129.628C16.2512 129.544 16.3597 129.436 16.4441 129.31C16.5284 129.184 16.5869 129.042 16.6162 128.894L18.1796 121.224C18.236 120.933 18.177 120.631 18.0152 120.382C17.8534 120.133 17.6013 119.957 17.312 119.89Z" fill="#EEFFF1"/>
<path d="M6.77741 122.992C6.79384 122.87 6.83532 122.753 6.89925 122.648C6.96317 122.543 7.04815 122.452 7.14886 122.381C7.24956 122.31 7.36381 122.261 7.48442 122.237C7.60503 122.212 7.72939 122.213 7.84968 122.239C8.0398 122.266 8.21741 122.35 8.35945 122.479C8.50149 122.608 8.60141 122.777 8.64623 122.964C8.69105 123.15 8.6787 123.346 8.61079 123.526C8.54288 123.705 8.42255 123.861 8.2654 123.971C8.10826 124.081 7.92157 124.142 7.72957 124.145C7.53756 124.148 7.34911 124.093 7.18869 123.987C7.02826 123.882 6.90327 123.73 6.82993 123.553C6.75659 123.375 6.73829 123.18 6.77741 122.992Z" fill="url(#paint6_linear_93_1819)"/>
<path d="M9.86323 123.614C9.88055 123.492 9.92298 123.375 9.98786 123.27C10.0527 123.165 10.1387 123.075 10.2402 123.005C10.3417 122.935 10.4566 122.887 10.5777 122.863C10.6988 122.84 10.8234 122.842 10.9437 122.869C11.0644 122.891 11.1791 122.937 11.2805 123.006C11.3818 123.075 11.4674 123.165 11.5315 123.269C11.5957 123.374 11.6371 123.49 11.6528 123.612C11.6686 123.734 11.6585 123.857 11.6231 123.974C11.6069 124.097 11.5656 124.215 11.5019 124.321C11.4382 124.426 11.3533 124.518 11.2527 124.59C11.152 124.661 11.0377 124.712 10.9168 124.737C10.7959 124.763 10.671 124.763 10.5499 124.738C10.4289 124.714 10.3142 124.664 10.2131 124.593C10.1119 124.522 10.0265 124.431 9.9621 124.326C9.89768 124.22 9.85566 124.103 9.83865 123.98C9.82164 123.858 9.83001 123.733 9.86323 123.614Z" fill="url(#paint7_linear_93_1819)"/>
<path d="M12.8918 124.236C12.9092 124.115 12.9515 123.999 13.0158 123.895C13.0802 123.79 13.1653 123.701 13.2659 123.631C13.3665 123.561 13.4804 123.512 13.6005 123.488C13.7206 123.464 13.8444 123.466 13.9641 123.491C14.0849 123.513 14.1998 123.56 14.3014 123.629C14.4029 123.697 14.4889 123.787 14.5538 123.891C14.6186 123.995 14.6608 124.112 14.6777 124.233C14.6945 124.355 14.6857 124.479 14.6516 124.596C14.6354 124.719 14.5942 124.837 14.5304 124.943C14.4667 125.049 14.3819 125.14 14.2812 125.212C14.1806 125.284 14.0662 125.334 13.9453 125.359C13.8244 125.385 13.6996 125.385 13.5785 125.361C13.4574 125.336 13.3428 125.286 13.2416 125.215C13.1405 125.144 13.0551 125.053 12.9907 124.948C12.9262 124.842 12.8842 124.725 12.8672 124.602C12.8502 124.48 12.8586 124.355 12.8918 124.236Z" fill="url(#paint8_linear_93_1819)"/>
<path d="M121.38 1.89079L101.735 0.00818664C101.222 -0.0397 100.711 0.117762 100.313 0.446078C99.9158 0.774394 99.6648 1.24679 99.615 1.75983L98.3627 14.8563C98.3379 15.1106 98.3635 15.3673 98.4382 15.6117C98.5129 15.8561 98.6352 16.0833 98.798 16.2803C98.9607 16.4773 99.1608 16.6402 99.3867 16.7596C99.6126 16.8791 99.8599 16.9527 100.114 16.9763L106.18 17.5574L109.552 21.8547L113.645 18.2777L119.71 18.8589C119.964 18.8837 120.221 18.858 120.465 18.7833C120.71 18.7086 120.937 18.5864 121.134 18.4236C121.331 18.2609 121.494 18.0608 121.613 17.8349C121.733 17.609 121.806 17.3617 121.83 17.1072L123.09 4.01078C123.139 3.50394 122.987 2.99829 122.667 2.60206C122.347 2.20583 121.885 1.95052 121.38 1.89079Z" fill="#EEFFF1"/>
<path d="M104.33 8.97923C104.375 8.68605 104.505 8.41255 104.704 8.19267C104.903 7.97279 105.162 7.8162 105.45 7.74237C105.737 7.66853 106.039 7.6807 106.32 7.77734C106.6 7.87398 106.846 8.05083 107.027 8.28597C107.208 8.52111 107.316 8.80419 107.337 9.10003C107.358 9.39587 107.292 9.69145 107.147 9.95011C107.002 10.2088 106.784 10.4191 106.52 10.555C106.257 10.6909 105.959 10.7463 105.664 10.7145C105.459 10.696 105.26 10.6353 105.08 10.5362C104.9 10.4372 104.742 10.3019 104.617 10.1389C104.492 9.97588 104.402 9.78868 104.352 9.5891C104.303 9.38953 104.295 9.18188 104.33 8.97923Z" fill="url(#paint9_linear_93_1819)"/>
<path d="M109.552 9.4786C109.558 9.27409 109.605 9.07296 109.692 8.88773C109.779 8.7025 109.903 8.53716 110.057 8.402C110.211 8.26685 110.39 8.16478 110.585 8.10215C110.78 8.03952 110.985 8.01769 111.189 8.038C111.541 8.15692 111.841 8.39176 112.042 8.70403C112.242 9.0163 112.331 9.38744 112.293 9.75662C112.255 10.1258 112.092 10.4711 111.832 10.7359C111.572 11.0006 111.23 11.1692 110.862 11.2139C110.659 11.1911 110.464 11.1274 110.287 11.0266C110.111 10.9258 109.956 10.7901 109.834 10.6278C109.711 10.4654 109.623 10.2798 109.575 10.0822C109.526 9.88463 109.518 9.67924 109.552 9.4786Z" fill="url(#paint10_linear_93_1819)"/>
<path d="M114.766 9.97782C114.773 9.77369 114.821 9.57315 114.909 9.3885C114.996 9.20385 115.12 9.03897 115.273 8.90405C115.427 8.76912 115.606 8.66698 115.8 8.60389C115.994 8.54081 116.2 8.51811 116.403 8.5372C116.754 8.65611 117.055 8.89096 117.256 9.20323C117.456 9.51549 117.545 9.88666 117.507 10.2558C117.469 10.625 117.306 10.9703 117.046 11.2351C116.786 11.4998 116.444 11.6684 116.075 11.7131C115.873 11.6903 115.678 11.6266 115.501 11.5258C115.325 11.425 115.17 11.2893 115.048 11.127C114.925 10.9646 114.837 10.779 114.788 10.5814C114.74 10.3838 114.732 10.1785 114.766 9.97782Z" fill="url(#paint11_linear_93_1819)"/>
<path d="M142.743 49.3245C146.283 49.3245 149.152 46.4551 149.152 42.9154C149.152 39.3758 146.283 36.5063 142.743 36.5063C139.204 36.5063 136.334 39.3758 136.334 42.9154C136.334 46.4551 139.204 49.3245 142.743 49.3245Z" fill="url(#paint12_linear_93_1819)"/>
<path d="M140.132 41.9578V40.4927C140.569 40.4058 140.982 40.2283 141.346 39.9717C141.71 39.7151 142.016 39.3851 142.244 39.0029H143.881V45.101H145.387V46.558H140.476V45.101H142.178V41.1475C141.54 41.5169 140.85 41.79 140.132 41.9578Z" fill="white"/>
<path d="M4.82932 94.5401C7.49648 94.5401 9.65864 92.3779 9.65864 89.7108C9.65864 87.0436 7.49648 84.8815 4.82932 84.8815C2.16216 84.8815 0 87.0436 0 89.7108C0 92.3779 2.16216 94.5401 4.82932 94.5401Z" fill="url(#paint13_linear_93_1819)"/>
<path d="M2.85669 88.9905V87.8527C3.18681 87.789 3.49971 87.6562 3.77481 87.4629C4.04991 87.2696 4.28098 87.0203 4.45282 86.7313H5.66424V91.3233H6.79381V92.4201H3.11043V91.3233H4.38733V88.3438C3.91432 88.6386 3.39775 88.8568 2.85669 88.9905Z" fill="white"/>
<path d="M169.214 134.713C171.66 134.713 173.643 132.731 173.643 130.285C173.643 127.84 171.66 125.857 169.214 125.857C166.769 125.857 164.786 127.84 164.786 130.285C164.786 132.731 166.769 134.713 169.214 134.713Z" fill="url(#paint14_linear_93_1819)"/>
<path d="M167.406 129.63V128.591C167.708 128.533 167.994 128.411 168.245 128.233C168.497 128.055 168.707 127.825 168.862 127.56H169.976V131.759H171.023V132.765H167.651V131.759H168.822V129.025C168.384 129.3 167.906 129.504 167.406 129.63Z" fill="white"/>
<path d="M119.931 24.5312H61.095C55.2261 24.5312 50.4541 28.4684 50.4541 33.3222V151.698C50.4541 156.552 55.2098 160.489 61.095 160.489H119.931C125.8 160.489 130.572 156.552 130.572 151.698V33.3222C130.555 28.4684 125.8 24.5312 119.931 24.5312Z" fill="#03053E"/>
<path d="M126.021 34.5583V147.212C125.973 147.664 125.75 148.08 125.4 148.369C125.049 148.658 124.599 148.798 124.146 148.759H56.8796C56.4268 148.798 55.9768 148.658 55.6263 148.369C55.2758 148.08 55.0528 147.664 55.0051 147.212V34.5583C55.0528 34.1057 55.2755 33.6897 55.6257 33.3991C55.976 33.1086 56.426 32.9664 56.8796 33.0031H124.146C124.6 32.9664 125.05 33.1086 125.4 33.3991C125.75 33.6897 125.973 34.1057 126.021 34.5583Z" fill="white"/>
<path d="M118.171 81.7711C115.585 83.4857 112.701 84.6991 109.667 85.3481C109.667 85.3481 111.369 83.9566 109.241 82.9989C105.197 83.3017 98.6001 83.5555 91.7408 83.7028H90.2102H88.9333C86.2321 83.7028 83.531 83.7683 80.9526 83.7683H79.6593C75.7959 83.7683 72.2926 83.6865 69.5996 83.5473L68.6829 83.4982L67.4878 83.4163C66.514 83.3767 65.5476 83.2284 64.6066 82.9743C60.0638 81.2718 55.1935 73.9705 59.8264 70.59C60.9805 69.7714 64.7376 69.2149 69.8697 68.8956H69.9107L71.0648 68.8301H71.4413H71.9242H72.5709H72.841H73.4221H73.6432H74.961H75.4439H76.0496H76.6799C77.0564 68.8301 77.4411 68.8301 77.8258 68.8301H78.3988H79.0127C81.4683 68.7892 83.9239 68.781 86.4941 68.7892H89.3507C102.128 68.9529 114.864 69.6896 118.122 70.5163C126.667 72.4808 122.427 78.6525 118.171 81.7711Z" fill="url(#paint15_linear_93_1819)"/>
<path d="M112.539 73.8395H92.6247C92.5742 73.8395 92.5241 73.8295 92.4775 73.8102C92.4308 73.7909 92.3884 73.7625 92.3526 73.7268C92.3169 73.6911 92.2886 73.6487 92.2693 73.602C92.2499 73.5553 92.24 73.5053 92.24 73.4548C92.24 73.352 92.2802 73.2533 92.3521 73.1798C92.4241 73.1064 92.5219 73.064 92.6247 73.0619H112.539C112.642 73.064 112.74 73.1064 112.812 73.1798C112.884 73.2533 112.924 73.352 112.924 73.4548C112.924 73.5053 112.914 73.5553 112.895 73.602C112.876 73.6487 112.847 73.6911 112.812 73.7268C112.776 73.7625 112.733 73.7909 112.687 73.8102C112.64 73.8295 112.59 73.8395 112.539 73.8395Z" fill="url(#paint16_linear_93_1819)"/>
<path d="M115.453 76.4588H90.2755C90.1821 76.4452 90.0967 76.3984 90.035 76.327C89.9732 76.2556 89.9392 76.1644 89.9392 76.07C89.9392 75.9756 89.9732 75.8843 90.035 75.8129C90.0967 75.7415 90.1821 75.6947 90.2755 75.6812H115.453C115.547 75.6947 115.632 75.7415 115.694 75.8129C115.756 75.8843 115.79 75.9756 115.79 76.07C115.79 76.1644 115.756 76.2556 115.694 76.327C115.632 76.3984 115.547 76.4452 115.453 76.4588Z" fill="url(#paint17_linear_93_1819)"/>
<path d="M112.539 79.078H91.3805C91.2871 79.0644 91.2017 79.0177 91.1399 78.9463C91.0782 78.8749 91.0442 78.7836 91.0442 78.6892C91.0442 78.5948 91.0782 78.5036 91.1399 78.4322C91.2017 78.3608 91.2871 78.314 91.3805 78.3004H112.539C112.633 78.314 112.718 78.3608 112.78 78.4322C112.842 78.5036 112.876 78.5948 112.876 78.6892C112.876 78.7836 112.842 78.8749 112.78 78.9463C112.718 79.0177 112.633 79.0644 112.539 79.078Z" fill="url(#paint18_linear_93_1819)"/>
<path d="M64.762 72.5871C64.7557 74.4142 65.2566 76.2073 66.2089 77.7666C67.1613 79.3259 68.5277 80.5903 70.1561 81.419L70.5899 81.6237C70.8437 81.7383 71.1056 81.8365 71.3675 81.9347C71.9198 82.1226 72.4864 82.2649 73.0619 82.3603L73.7085 82.4422H73.7822C74.0605 82.4422 74.3388 82.4831 74.6007 82.4831H75.1327C75.6366 82.459 76.1376 82.3933 76.6307 82.2867L76.8844 82.2294C77.1218 82.1721 77.3673 82.1066 77.6047 82.0329C79.3251 81.4736 80.8576 80.4501 82.0332 79.0751C83.2089 77.7002 83.982 76.0273 84.2672 74.2409C84.5525 72.4545 84.3389 70.624 83.65 68.9513C82.9611 67.2786 81.8236 65.8286 80.363 64.7613C78.9024 63.694 77.1754 63.0507 75.3725 62.9025C73.5695 62.7543 71.7607 63.1069 70.1454 63.9214C68.5301 64.7359 67.1711 65.9807 66.2183 67.5184C65.2655 69.0562 64.7559 70.8272 64.7456 72.6362L64.762 72.5871Z" fill="url(#paint19_linear_93_1819)"/>
<path d="M75.2555 75.4357L72.9636 75.1246L73.553 70.7373L74.9526 70.9256L75.2555 75.4357Z" fill="#EDBA8E"/>
<path d="M77.8011 69.0512C77.9402 70.901 77.4164 72.6854 76.2705 72.931C75.1245 73.1765 73.5611 71.9487 72.9963 70.0579C72.4316 68.1671 72.9963 66.7265 74.5761 66.4073C76.1559 66.0881 77.6701 67.0212 77.8011 69.0512Z" fill="#F1C8A9"/>
<path d="M75.01 65.8097C74.634 65.7999 74.2598 65.8651 73.9093 66.0015C73.5587 66.1379 73.2389 66.3427 72.9684 66.6041C72.6979 66.8655 72.4821 67.1781 72.3338 67.5237C72.1854 67.8694 72.1074 68.2411 72.1042 68.6172C72.1228 69.0832 72.2501 69.5384 72.4761 69.9463C72.7021 70.3542 73.0205 70.7036 73.4057 70.9664C73.4057 70.9664 74.0933 69.6158 74.9282 69.5012C76.0987 69.3375 75.7467 68.2653 76.2869 68.2243C76.8271 68.1834 78.0959 67.9133 78.1859 67.1111C77.4083 67.0375 76.9008 65.9161 75.01 65.8097Z" fill="#03053E"/>
<path d="M74.3562 70.4676C74.6206 70.3893 74.758 70.0658 74.663 69.745C74.5679 69.4243 74.2766 69.2278 74.0122 69.3061C73.7478 69.3844 73.6105 69.7079 73.7055 70.0286C73.8005 70.3494 74.0918 70.5459 74.3562 70.4676Z" fill="#F1C8A9"/>
<path d="M74.5269 69.4194C74.4486 70.3379 74.4926 71.2628 74.6579 72.1697C74.7556 72.4199 74.9236 72.6365 75.1417 72.7933C75.3597 72.9501 75.6185 73.0404 75.8868 73.0534C76.1551 73.0664 76.4214 73.0015 76.6536 72.8664C76.8858 72.7314 77.0739 72.5321 77.1953 72.2925C77.1953 72.2925 76.3768 72.3498 76.5241 72.0305C76.6715 71.7113 77.49 71.7604 77.49 71.7604C77.5334 71.7621 77.5763 71.7504 77.6129 71.727C77.6494 71.7036 77.678 71.6696 77.6946 71.6295C77.7284 71.4427 77.7284 71.2514 77.6946 71.0647C77.1783 71.1774 76.6515 71.2351 76.1231 71.2366C75.6074 71.1629 75.1899 70.7373 74.9116 69.4685L74.5269 69.4194Z" fill="#03053E"/>
<path d="M72.8164 76.5079L72.9555 76.868L73.1766 77.4328L73.9951 79.5937L74.4044 80.6414L75.1165 82.4504C75.6203 82.4263 76.1213 82.3606 76.6144 82.254L76.8681 82.1967L76.2706 80.4532L75.0019 76.7453L74.7891 76.115L74.6827 75.8121L74.2488 75.9677L73.7004 76.1723L72.8164 76.5079Z" fill="#EDBA8E"/>
<path d="M72.0715 77.4082C72.1139 77.8573 72.1988 78.3013 72.3253 78.7342C72.5967 79.6818 72.9416 80.6068 73.3566 81.5008C73.4876 81.7791 73.6185 82.0574 73.7659 82.3194C73.7615 82.3465 73.7615 82.3741 73.7659 82.4012C74.0442 82.4012 74.3225 82.4421 74.5844 82.4421H75.1164C75.6203 82.4181 76.1213 82.3524 76.6143 82.2457L76.8681 82.1884C77.1055 82.1311 77.351 82.0656 77.5884 81.992C77.04 80.625 76.4425 78.8324 75.8449 77.5719C75.6373 76.9942 75.2714 76.4865 74.789 76.1067C74.6201 76.0234 74.4367 75.9733 74.2488 75.9594C73.9245 75.9313 73.5979 75.9732 73.2911 76.0822C72.6036 76.3114 71.9979 76.8516 72.0715 77.4082Z" fill="url(#paint20_linear_93_1819)"/>
<path d="M70.156 81.4191L70.5898 81.6237C70.8436 81.7383 71.1055 81.8365 71.3674 81.9348C71.9197 82.1226 72.4863 82.265 73.0618 82.3604L73.7084 82.4422H73.7821C74.0604 82.4422 74.3387 82.4832 74.6006 82.4832H75.1326C75.6365 82.4591 76.1375 82.3934 76.6306 82.2867C76.5078 81.7056 76.3932 81.0998 76.2868 80.4859C76.1313 79.5692 75.9921 78.6197 75.8612 77.6129C75.7629 76.8681 75.6647 76.0986 75.5747 75.2883H75.2227C74.4502 75.2713 73.6907 75.0869 72.9963 74.7481C72.902 74.6947 72.8117 74.6346 72.7262 74.568C71.5833 76.7339 70.7197 79.0359 70.156 81.4191Z" fill="url(#paint21_linear_93_1819)"/>
<path d="M71.3674 81.9019C71.9197 82.0898 72.4863 82.2321 73.0618 82.3276C73.1436 82.0574 73.2337 81.7955 73.3237 81.509C73.5447 80.8624 73.7739 80.224 74.0195 79.5855C74.2077 79.1026 74.396 78.6114 74.6006 78.1367L74.9771 77.2199L73.0863 76.4833L72.9472 76.8598L72.7507 77.4164C72.5952 77.8584 72.4397 78.3004 72.2923 78.7424C72.0468 79.4955 71.8176 80.2403 71.6048 81.0015C71.5175 81.2798 71.4384 81.58 71.3674 81.9019Z" fill="#F1C8A9"/>
<path d="M70.5898 81.591C70.8436 81.7056 71.1055 81.8038 71.3675 81.902C71.9197 82.0899 72.4863 82.2322 73.0618 82.3276L73.7084 82.4095C73.7039 82.3824 73.7039 82.3547 73.7084 82.3276C73.9376 81.7629 74.1832 81.1899 74.4042 80.6251C74.9608 79.2172 75.3864 77.9158 75.1654 77.351C75.0258 77.0568 74.8215 76.798 74.5678 76.5939C74.314 76.3898 74.0175 76.2457 73.7002 76.1723C73.5664 76.1335 73.4295 76.1061 73.291 76.0905C73.1029 76.0538 72.9086 76.0645 72.7257 76.1216C72.5428 76.1788 72.377 76.2806 72.2433 76.4179C71.3756 77.5475 70.8927 79.5283 70.5898 81.591Z" fill="url(#paint22_linear_93_1819)"/>
<path d="M121.077 132.037C120.406 134.648 117.696 135.786 113.898 136.22C113.384 137.101 112.697 137.871 111.878 138.481C111.06 139.091 110.127 139.53 109.135 139.772C109.66 138.811 109.837 137.697 109.634 136.621C106.794 136.932 97.7979 137.202 88.434 137.235C85.7083 137.235 82.9498 137.235 80.306 137.194H79.9295C76.3852 137.144 73.062 137.038 70.2954 136.874C69.3541 136.825 68.4782 136.76 67.6761 136.694H67.4796L66.8985 136.637C66.2355 136.572 65.638 136.498 65.1223 136.416C64.4644 136.34 63.8183 136.183 63.1987 135.949C62.813 135.78 62.45 135.563 62.1183 135.303C57.6245 131.832 59.6627 122.01 61.8563 121.093C63.4824 120.579 65.1699 120.285 66.8739 120.217L67.5697 120.16L68.4619 120.103C69.043 120.062 69.6569 120.037 70.2954 120.013H70.8929H71.1139H71.515H72.7428H73.2666C73.9624 120.013 74.6909 120.013 75.4276 120.013H78.0141C80.1177 120.013 82.3196 120.07 84.5623 120.135H85.0207L87.1816 120.209H88.1066H88.7614C102.595 120.774 116.878 122.165 119.194 123.524C121.511 124.883 122.182 127.756 121.077 132.037Z" fill="url(#paint23_linear_93_1819)"/>
<path d="M114.078 128.378H88.6139C88.5053 128.378 88.4012 128.335 88.3245 128.258C88.2477 128.181 88.2046 128.077 88.2046 127.969C88.2046 127.86 88.2477 127.756 88.3245 127.679C88.4012 127.603 88.5053 127.56 88.6139 127.56H114.078C114.187 127.56 114.291 127.603 114.368 127.679C114.444 127.756 114.488 127.86 114.488 127.969C114.488 128.077 114.444 128.181 114.368 128.258C114.291 128.335 114.187 128.378 114.078 128.378Z" fill="url(#paint24_linear_93_1819)"/>
<path d="M112.998 125.62H87.2306C87.122 125.62 87.0179 125.576 86.9412 125.5C86.8644 125.423 86.8213 125.319 86.8213 125.21C86.8213 125.102 86.8644 124.998 86.9412 124.921C87.0179 124.844 87.122 124.801 87.2306 124.801H112.998C113.106 124.801 113.21 124.844 113.287 124.921C113.364 124.998 113.407 125.102 113.407 125.21C113.407 125.319 113.364 125.423 113.287 125.5C113.21 125.576 113.106 125.62 112.998 125.62Z" fill="url(#paint25_linear_93_1819)"/>
<path d="M114.078 131.12H92.1336C92.0251 131.12 91.921 131.077 91.8442 131C91.7675 130.923 91.7244 130.819 91.7244 130.711C91.7244 130.602 91.7675 130.498 91.8442 130.421C91.921 130.345 92.0251 130.302 92.1336 130.302H114.078C114.187 130.302 114.291 130.345 114.368 130.421C114.445 130.498 114.488 130.602 114.488 130.711C114.488 130.819 114.445 130.923 114.368 131C114.291 131.077 114.187 131.12 114.078 131.12Z" fill="url(#paint26_linear_93_1819)"/>
<path d="M111.606 133.854H98.1497C98.0964 133.855 98.0434 133.846 97.9937 133.826C97.9441 133.806 97.899 133.777 97.8609 133.739C97.8227 133.702 97.7924 133.658 97.7718 133.608C97.7511 133.559 97.7405 133.506 97.7405 133.453C97.7405 133.344 97.7836 133.24 97.8604 133.164C97.9371 133.087 98.0412 133.044 98.1497 133.044H111.606C111.715 133.044 111.819 133.087 111.896 133.164C111.973 133.24 112.016 133.344 112.016 133.453C112.016 133.506 112.005 133.559 111.984 133.608C111.964 133.658 111.933 133.702 111.895 133.739C111.857 133.777 111.812 133.806 111.762 133.826C111.713 133.846 111.66 133.855 111.606 133.854Z" fill="url(#paint27_linear_93_1819)"/>
<path d="M64.9749 125.62C64.9705 127.441 65.4727 129.228 66.4252 130.78C67.3778 132.332 68.7432 133.589 70.369 134.411L70.8028 134.623C71.0566 134.738 71.3185 134.836 71.5804 134.926C72.131 135.122 72.6981 135.267 73.2748 135.36C73.4876 135.36 73.7004 135.417 73.9214 135.434H73.9951C74.2652 135.434 74.5517 135.475 74.8136 135.475H75.3457C75.8488 135.442 76.3492 135.377 76.8435 135.278L77.0973 135.221C77.3347 135.164 77.5802 135.098 77.8176 135.024C79.5395 134.468 81.0743 133.447 82.2525 132.073C83.4306 130.699 84.2065 129.027 84.4944 127.241C84.7822 125.454 84.5709 123.623 83.8838 121.948C83.1966 120.274 82.0604 118.823 80.6004 117.753C79.1404 116.684 77.4134 116.039 75.61 115.889C73.8065 115.74 71.9968 116.091 70.3804 116.905C68.7641 117.718 67.4039 118.963 66.45 120.501C65.4962 122.039 64.9857 123.81 64.9749 125.62Z" fill="url(#paint28_linear_93_1819)"/>
<path d="M75.4683 128.476L73.1682 128.173L73.7576 123.786L75.1654 123.974L75.4683 128.476Z" fill="#EDBA8E"/>
<path d="M78.0385 122.1C78.1859 123.95 77.6538 125.726 76.5161 125.98C75.3783 126.233 73.8067 124.997 73.2419 123.107C72.6772 121.216 73.2419 119.775 74.8217 119.456C76.4015 119.137 77.883 120.07 78.0385 122.1Z" fill="#F1C8A9"/>
<path d="M75.2227 118.858C74.8471 118.848 74.4731 118.912 74.1226 119.047C73.7721 119.183 73.4521 119.387 73.1815 119.648C72.9109 119.908 72.695 120.22 72.5466 120.566C72.3981 120.911 72.32 121.282 72.3169 121.658C72.3348 122.125 72.4618 122.582 72.6878 122.991C72.9138 123.4 73.2325 123.751 73.6184 124.015C73.6184 124.015 74.3059 122.665 75.1408 122.55C76.3113 122.386 75.9594 121.314 76.4996 121.273C77.0398 121.232 78.3085 120.962 78.3986 120.16C77.621 120.086 77.1135 118.965 75.2227 118.858Z" fill="#03053E"/>
<path d="M74.5662 123.522C74.8306 123.444 74.9679 123.12 74.8729 122.8C74.7779 122.479 74.4866 122.282 74.2222 122.361C73.9578 122.439 73.8204 122.763 73.9154 123.083C74.0104 123.404 74.3018 123.601 74.5662 123.522Z" fill="#F1C8A9"/>
<path d="M74.7398 122.468C74.6614 123.387 74.7055 124.312 74.8708 125.219C74.9694 125.468 75.1381 125.684 75.3566 125.84C75.5751 125.996 75.8341 126.086 76.1024 126.098C76.3706 126.11 76.6367 126.044 76.8684 125.908C77.1001 125.773 77.2875 125.573 77.4082 125.333C77.4082 125.333 76.5897 125.399 76.737 125.079C76.8844 124.76 77.6947 124.809 77.6947 124.809C77.7392 124.811 77.7834 124.8 77.8214 124.777C77.8594 124.753 77.8894 124.719 77.9075 124.678C77.9412 124.489 77.9412 124.295 77.9075 124.105C77.3917 124.222 76.8648 124.282 76.3359 124.285C75.8203 124.212 75.4028 123.786 75.1245 122.517L74.7398 122.468Z" fill="#03053E"/>
<path d="M73.0291 129.54L73.1682 129.9L73.3892 130.465L74.2077 132.626L74.617 133.674L75.3291 135.483C75.8322 135.451 76.3326 135.385 76.827 135.286L77.0808 135.229L76.4832 133.486L75.2145 129.778L75.0017 129.147L74.8953 128.845L74.4615 129L73.9131 129.197L73.0291 129.54Z" fill="#EDBA8E"/>
<path d="M72.2596 130.457C72.302 130.906 72.3869 131.35 72.5134 131.783C72.7836 132.729 73.1284 133.651 73.5447 134.542C73.6757 134.82 73.8066 135.098 73.9458 135.36L73.9949 135.442C74.265 135.442 74.5515 135.483 74.8134 135.483H75.3455C75.8486 135.451 76.349 135.385 76.8434 135.286L77.0971 135.229C77.3345 135.172 77.58 135.106 77.8174 135.033C77.269 133.666 76.6715 131.873 76.074 130.613C75.8663 130.035 75.5004 129.527 75.0181 129.147C74.8487 129.065 74.6655 129.015 74.4778 129C74.1535 128.972 73.8269 129.014 73.5201 129.123C72.8162 129.36 72.2105 129.901 72.2596 130.457Z" fill="url(#paint29_linear_93_1819)"/>
<path d="M70.3689 134.427L70.8027 134.64C71.0565 134.754 71.3184 134.853 71.5803 134.943C72.1309 135.138 72.698 135.283 73.2747 135.376C73.4875 135.376 73.7003 135.434 73.9213 135.45H73.995C74.2651 135.45 74.5516 135.491 74.8135 135.491H75.3455C75.8486 135.459 76.349 135.393 76.8434 135.295C76.7125 134.705 76.6061 134.108 76.4997 133.494C76.3441 132.577 76.205 131.628 76.074 130.621C75.9758 129.876 75.8776 129.107 75.7794 128.296C75.6649 128.303 75.55 128.303 75.4356 128.296C74.6631 128.287 73.9026 128.105 73.2092 127.764C73.1149 127.711 73.0246 127.651 72.9391 127.584C71.797 129.747 70.9334 132.047 70.3689 134.427Z" fill="url(#paint30_linear_93_1819)"/>
<path d="M71.5803 134.943C72.1309 135.138 72.698 135.283 73.2747 135.376C73.3565 135.106 73.4466 134.844 73.5366 134.558C73.7576 133.92 73.9868 133.281 74.2324 132.643C74.4206 132.152 74.6089 131.669 74.8053 131.194L75.19 130.277L73.291 129.532L73.1601 129.917L72.9636 130.474C72.8081 130.916 72.6526 131.358 72.5053 131.8C72.2597 132.553 72.0305 133.297 71.8177 134.059C71.7358 134.345 71.654 134.623 71.5803 134.943Z" fill="#F1C8A9"/>
<path d="M70.8027 134.623C71.0565 134.738 71.3184 134.836 71.5803 134.926C72.1309 135.122 72.698 135.267 73.2747 135.36C73.4875 135.36 73.7003 135.417 73.9213 135.434V135.36C74.1587 134.795 74.4042 134.214 74.6253 133.658C75.1818 132.241 75.6075 130.948 75.3865 130.383C75.2459 130.089 75.0414 129.83 74.7879 129.625C74.5345 129.419 74.2384 129.273 73.9213 129.197C73.7872 129.161 73.6503 129.136 73.5121 129.123C73.324 129.085 73.1295 129.096 72.9465 129.153C72.7634 129.21 72.5976 129.312 72.4643 129.45C71.5885 130.596 71.1056 132.577 70.8027 134.623Z" fill="url(#paint31_linear_93_1819)"/>
<path d="M118.498 58.4512C117.975 58.8277 116.583 59.0487 114.578 59.1551H114.16C112.384 59.2369 110.182 59.2369 107.694 59.1551C106.949 59.1551 106.18 59.1551 105.394 59.0896L103.413 59.016H103.135L100.433 58.885L98.3053 58.7704C88.1555 58.1974 76.8435 57.2234 71.0483 56.7896C68.8464 57.78 69.6077 60.4074 69.6077 60.4074C66.1289 59.0896 66.1862 55.4062 64.9421 55.4226C58.5903 55.5045 57.739 44.5116 62.4865 43.6358C67.2339 42.76 89.9317 41.7696 105.697 42.5635L107.514 42.6699H107.735H107.98H108.087C109.053 42.7354 109.977 42.8091 110.87 42.8909H110.943L111.844 42.981L112.728 43.0792L113.235 43.1365C117.328 43.6194 120.168 44.3315 120.954 45.3465C122.566 47.4338 120.848 56.8059 118.498 58.4512Z" fill="url(#paint32_linear_93_1819)"/>
<path d="M87.0178 46.3615H67.7742C67.7206 46.3695 67.666 46.3658 67.614 46.3507C67.562 46.3357 67.5139 46.3096 67.4729 46.2742C67.4319 46.2389 67.3991 46.1951 67.3765 46.1459C67.354 46.0967 67.3423 46.0432 67.3423 45.9891C67.3423 45.9349 67.354 45.8815 67.3765 45.8322C67.3991 45.783 67.4319 45.7393 67.4729 45.7039C67.5139 45.6686 67.562 45.6425 67.614 45.6274C67.666 45.6123 67.7206 45.6087 67.7742 45.6166H87.0178C87.0713 45.6087 87.126 45.6123 87.1779 45.6274C87.2299 45.6425 87.2781 45.6686 87.3191 45.7039C87.36 45.7393 87.3929 45.783 87.4155 45.8322C87.438 45.8815 87.4497 45.9349 87.4497 45.9891C87.4497 46.0432 87.438 46.0967 87.4155 46.1459C87.3929 46.1951 87.36 46.2389 87.3191 46.2742C87.2781 46.3096 87.2299 46.3357 87.1779 46.3507C87.126 46.3658 87.0713 46.3695 87.0178 46.3615Z" fill="url(#paint33_linear_93_1819)"/>
<path d="M87.0179 48.8907H66.702C66.6127 48.8774 66.5312 48.8325 66.4722 48.7641C66.4133 48.6958 66.3809 48.6085 66.3809 48.5182C66.3809 48.428 66.4133 48.3407 66.4722 48.2724C66.5312 48.204 66.6127 48.1591 66.702 48.1458H87.0179C87.0714 48.1379 87.1261 48.1415 87.1781 48.1566C87.23 48.1716 87.2782 48.1978 87.3192 48.2331C87.3602 48.2684 87.393 48.3122 87.4156 48.3614C87.4381 48.4106 87.4498 48.4641 87.4498 48.5182C87.4498 48.5724 87.4381 48.6259 87.4156 48.6751C87.393 48.7243 87.3602 48.768 87.3192 48.8034C87.2782 48.8387 87.23 48.8648 87.1781 48.8799C87.1261 48.895 87.0714 48.8986 87.0179 48.8907Z" fill="url(#paint34_linear_93_1819)"/>
<path d="M88.9495 51.4282H66.661C66.5611 51.4282 66.4653 51.3886 66.3947 51.3179C66.3241 51.2473 66.2844 51.1515 66.2844 51.0517C66.2844 50.9518 66.3241 50.8561 66.3947 50.7855C66.4653 50.7148 66.5611 50.6752 66.661 50.6752H88.9495C89.0493 50.6752 89.1451 50.7148 89.2157 50.7855C89.2864 50.8561 89.326 50.9518 89.326 51.0517C89.326 51.1515 89.2864 51.2473 89.2157 51.3179C89.1451 51.3886 89.0493 51.4282 88.9495 51.4282Z" fill="url(#paint35_linear_93_1819)"/>
<path d="M92.1254 53.8428H69.8369C69.7834 53.8508 69.7287 53.8471 69.6768 53.832C69.6248 53.817 69.5766 53.7909 69.5356 53.7555C69.4947 53.7202 69.4618 53.6764 69.4392 53.6272C69.4167 53.578 69.405 53.5245 69.405 53.4704C69.405 53.4163 69.4167 53.3628 69.4392 53.3136C69.4618 53.2644 69.4947 53.2206 69.5356 53.1852C69.5766 53.1499 69.6248 53.1238 69.6768 53.1088C69.7287 53.0937 69.7834 53.09 69.8369 53.098H92.1254C92.179 53.09 92.2336 53.0937 92.2856 53.1088C92.3376 53.1238 92.3857 53.1499 92.4267 53.1852C92.4677 53.2206 92.5006 53.2644 92.5231 53.3136C92.5457 53.3628 92.5573 53.4163 92.5573 53.4704C92.5573 53.5245 92.5457 53.578 92.5231 53.6272C92.5006 53.6764 92.4677 53.7202 92.4267 53.7555C92.3857 53.7909 92.3376 53.817 92.2856 53.832C92.2336 53.8471 92.179 53.8508 92.1254 53.8428Z" fill="url(#paint36_linear_93_1819)"/>
<path d="M118.073 46.8935C118.077 49.0048 117.401 51.0614 116.145 52.7584C114.889 54.4554 113.12 55.7025 111.099 56.3148C110.943 56.3639 110.788 56.413 110.632 56.4457C110.117 56.5793 109.591 56.667 109.061 56.7077C108.799 56.7077 108.537 56.7486 108.242 56.7486H108.185C107.458 56.7487 106.734 56.6691 106.024 56.5112C105.59 56.4128 105.163 56.2842 104.747 56.1265L104.453 56.0119C104.047 55.8474 103.654 55.656 103.274 55.439C101.791 54.5696 100.563 53.3264 99.7111 51.8337C98.8594 50.3409 98.4143 48.6508 98.4202 46.9322C98.4261 45.2136 98.8829 43.5266 99.7448 42.0397C100.607 40.5529 101.844 39.3182 103.332 38.4591C104.821 37.5999 106.509 37.1464 108.227 37.1437C109.946 37.141 111.635 37.5893 113.126 38.4438C114.617 39.2984 115.858 40.5292 116.725 42.0134C117.591 43.4975 118.053 45.1831 118.065 46.9017L118.073 46.8935Z" fill="url(#paint37_linear_93_1819)"/>
<path d="M104.968 40.4926C106.826 39.1584 109.061 40.0669 109.364 41.9905C109.748 44.487 109.265 46.5006 109.879 48.154C110.464 49.7867 110.701 51.5237 110.575 53.2534C108.038 49.791 105.418 51.2235 103.97 47.7447C103.503 46.5906 103.176 41.7285 104.968 40.4926Z" fill="#03053E"/>
<path d="M105.713 48.8662H107.931V44.618H106.572L105.713 48.8662Z" fill="#EDBA8E"/>
<path d="M104.068 42.4653C103.691 44.2088 103.97 45.9686 105.025 46.3533C106.081 46.738 107.727 45.764 108.504 44.0369C109.282 42.3098 108.93 40.8692 107.465 40.3617C105.999 39.8542 104.477 40.5581 104.068 42.4653Z" fill="#F1C8A9"/>
<path d="M107.694 50.3149L107.506 50.7569L107.309 51.1826L107.113 51.6246C106.957 51.9765 106.785 52.3285 106.622 52.6723C106.335 53.2698 106.032 53.8673 105.721 54.4567C105.41 55.046 105.14 55.529 104.821 56.0528L104.772 56.1346L104.477 56.0201C104.072 55.8555 103.678 55.6641 103.298 55.4471L103.413 55.2425C103.683 54.735 103.937 54.2193 104.182 53.6873C104.502 53.0079 104.804 52.3039 105.091 51.6082C105.255 51.2235 105.402 50.847 105.549 50.4704L105.656 50.184L105.762 49.9138L105.893 49.5782L106.13 49.6765L106.458 49.8156L107.039 50.0448L107.694 50.3149Z" fill="#EDBA8E"/>
<path d="M108.488 51.2563C108.397 51.9869 108.187 52.6976 107.866 53.3599C107.702 53.72 107.514 54.0966 107.309 54.4649C106.916 55.1688 106.491 55.8728 106.049 56.5112C105.615 56.4128 105.188 56.2843 104.772 56.1265L104.477 56.0119C104.072 55.8474 103.678 55.656 103.298 55.439C103.844 53.8949 104.478 52.3836 105.197 50.9125C105.339 50.6595 105.498 50.4161 105.672 50.184L105.852 49.963C105.944 49.8613 106.043 49.7656 106.147 49.6765C106.277 49.5537 106.43 49.4579 106.597 49.3947C106.764 49.3315 106.942 49.302 107.121 49.3082C107.36 49.3227 107.59 49.405 107.784 49.5455L107.948 49.6602C108.164 49.8598 108.327 50.1105 108.421 50.3894C108.516 50.6682 108.538 50.9663 108.488 51.2563Z" fill="url(#paint38_linear_93_1819)"/>
<path d="M110.632 56.4457C110.117 56.5793 109.591 56.667 109.061 56.7077C108.995 56.4703 108.922 56.2248 108.84 55.9792C108.668 55.4308 108.472 54.8906 108.259 54.3421C108.136 54.0065 108.005 53.6791 107.866 53.3517C107.628 52.7624 107.375 52.1812 107.113 51.6082C107.039 51.4445 106.974 51.289 106.9 51.1335L106.507 50.315L107.047 50.0776L107.94 49.6929L108.291 49.5374L108.652 50.4132C108.832 50.8606 109.004 51.3108 109.167 51.7638C109.421 52.4431 109.658 53.1225 109.888 53.8183C110.076 54.3912 110.256 54.9724 110.411 55.5617C110.485 55.8237 110.542 56.1347 110.632 56.4457Z" fill="#F1C8A9"/>
<path d="M110.641 56.4867V56.4458C110.125 56.5794 109.6 56.667 109.069 56.7077C108.807 56.7077 108.545 56.7486 108.25 56.7486H108.193C107.466 56.7488 106.742 56.6692 106.032 56.5113C105.598 56.4129 105.172 56.2843 104.755 56.1266L104.461 56.012C104.69 54.6368 104.886 53.1635 105.075 51.6001C105.075 51.3709 105.132 51.1417 105.165 50.9044C105.214 50.4787 105.271 50.0858 105.32 49.6111C105.361 49.3328 105.394 49.0545 105.427 48.7926H105.713C106.393 48.7841 107.066 48.6451 107.694 48.3833L107.915 48.2687C108 48.2199 108.082 48.1651 108.16 48.105C108.242 48.2851 108.324 48.4651 108.398 48.6452C108.57 49.0299 108.725 49.4228 108.881 49.8157C109.184 50.6343 109.446 51.4528 109.699 52.214C110.105 53.6109 110.419 55.0327 110.641 56.4703V56.4867Z" fill="url(#paint39_linear_93_1819)"/>
<path d="M110.632 56.4457C110.117 56.5793 109.591 56.667 109.061 56.7077C108.799 56.7077 108.537 56.7486 108.242 56.7486C108.013 56.1347 107.645 55.3244 107.284 54.4649C107.031 53.8756 106.785 53.2617 106.597 52.6641C106.283 51.8863 106.173 51.0409 106.278 50.2085C106.306 50.0694 106.358 49.9364 106.433 49.8157C106.578 49.5718 106.809 49.3908 107.08 49.3082C107.156 49.2767 107.236 49.2547 107.317 49.2427C107.603 49.1893 107.897 49.2127 108.17 49.3105C108.443 49.4083 108.686 49.577 108.872 49.7993C109.046 49.9818 109.199 50.1821 109.331 50.3968C109.793 51.2052 110.142 52.0726 110.37 52.9752V53.0488C110.649 54.072 110.853 55.1525 111.009 56.0856C111.009 56.1674 111.009 56.2411 111.05 56.323C110.943 56.3639 110.788 56.413 110.632 56.4457Z" fill="url(#paint40_linear_93_1819)"/>
<path d="M106.965 39.8869C107.408 39.8601 107.849 39.9535 108.242 40.157C108.938 40.5172 109.879 41.3685 110.027 43.3084C110.199 45.1173 109.47 46.0013 111.017 47.7039C112.752 49.0217 115.855 48.8007 115.494 51.7965C115.134 54.7923 111.214 54.3667 110.28 52.8852C109.347 51.4036 109.462 50.0858 108.93 49.1527C108.398 48.2195 107.514 48.768 107.064 47.7366C106.613 46.7053 107.448 44.6017 107.612 44.2251C107.579 44.0085 107.484 43.806 107.339 43.6419C107.194 43.4779 107.005 43.3592 106.794 43.3002C105.525 42.9564 104.477 41.7532 104.477 41.3685C104.477 40.9838 105.631 39.8869 106.965 39.8869Z" fill="#03053E"/>
<path d="M107.006 43.554C106.939 43.6768 106.922 43.8213 106.96 43.9562C106.999 44.0911 107.089 44.2054 107.211 44.2743C107.276 44.2974 107.346 44.3073 107.415 44.3033C107.485 44.2994 107.553 44.2816 107.615 44.2512C107.678 44.2207 107.733 44.1781 107.779 44.1258C107.825 44.0736 107.86 44.0128 107.882 43.9469C107.926 43.8878 107.955 43.8198 107.969 43.7478C107.983 43.6758 107.98 43.6016 107.962 43.5306C107.943 43.4597 107.909 43.3939 107.861 43.3379C107.814 43.282 107.755 43.2374 107.688 43.2073C107.621 43.1773 107.548 43.1627 107.475 43.1645C107.402 43.1662 107.33 43.1844 107.264 43.2177C107.199 43.2509 107.142 43.2984 107.097 43.3566C107.052 43.4148 107.021 43.4822 107.006 43.554Z" fill="#F1C8A9"/>
<path d="M113.816 110.117C113.538 110.174 113.252 110.215 112.998 110.248H112.859L112.098 110.297C111.5 110.297 110.739 110.297 109.838 110.297H109.413C107.563 110.297 105.206 110.239 102.586 110.149C91.8963 109.781 76.7535 108.782 72.8491 107.694C72.4562 109.405 73.5121 111.713 73.5121 111.713C71.2642 110.322 69.3789 108.417 68.0116 106.155C66.5628 105.647 64.0499 105.336 63.1413 104.878C59.8672 103.306 59.5889 96.6928 63.1413 94.9493C66.2681 93.4351 88.2129 93.0176 103.56 94.0162H103.961H104.567L105.279 94.0653L106.425 94.1553L107.759 94.2699L109.879 94.4828L111.721 94.7037L112.155 94.7692C115.355 95.2194 117.614 95.7924 118.367 96.4881C122.264 100.139 120.7 108.774 113.816 110.117Z" fill="url(#paint41_linear_93_1819)"/>
<path d="M92.1256 98.4363H68.5274C68.4762 98.4363 68.4254 98.4261 68.3782 98.4062C68.331 98.3864 68.2882 98.3573 68.2524 98.3207C68.2166 98.2841 68.1884 98.2407 68.1696 98.1931C68.1507 98.1455 68.1416 98.0946 68.1427 98.0434C68.1426 97.9406 68.1829 97.8419 68.2548 97.7684C68.3267 97.695 68.4246 97.6527 68.5274 97.6505H92.1256C92.2283 97.6527 92.3262 97.695 92.3981 97.7684C92.47 97.8419 92.5103 97.9406 92.5103 98.0434C92.5114 98.0946 92.5022 98.1455 92.4834 98.1931C92.4645 98.2407 92.4364 98.2841 92.4005 98.3207C92.3647 98.3573 92.3219 98.3864 92.2747 98.4062C92.2275 98.4261 92.1768 98.4363 92.1256 98.4363Z" fill="url(#paint42_linear_93_1819)"/>
<path d="M88.6876 101.064H66.9885C66.9365 101.065 66.8849 101.055 66.8368 101.036C66.7886 101.017 66.7448 100.988 66.7081 100.951C66.6714 100.914 66.6425 100.871 66.6232 100.823C66.6038 100.774 66.5944 100.723 66.5955 100.671C66.5955 100.567 66.6369 100.467 66.7106 100.393C66.7843 100.319 66.8842 100.278 66.9885 100.278H88.6876C88.7918 100.278 88.8918 100.319 88.9655 100.393C89.0391 100.467 89.0805 100.567 89.0805 100.671C89.0816 100.723 89.0723 100.774 89.0529 100.823C89.0336 100.871 89.0047 100.914 88.968 100.951C88.9312 100.988 88.8875 101.017 88.8393 101.036C88.7911 101.055 88.7395 101.065 88.6876 101.064Z" fill="url(#paint43_linear_93_1819)"/>
<path d="M81.9675 103.74H70.0497C69.9978 103.742 69.9462 103.732 69.8981 103.713C69.8499 103.693 69.8061 103.664 69.7694 103.628C69.7327 103.591 69.7038 103.547 69.6845 103.499C69.6651 103.451 69.6557 103.399 69.6568 103.347C69.6568 103.243 69.6982 103.143 69.7719 103.07C69.8456 102.996 69.9455 102.955 70.0497 102.955H81.9675C82.0717 102.955 82.1716 102.996 82.2453 103.07C82.319 103.143 82.3604 103.243 82.3604 103.347C82.3615 103.399 82.3521 103.451 82.3328 103.499C82.3134 103.547 82.2845 103.591 82.2478 103.628C82.2111 103.664 82.1674 103.693 82.1192 103.713C82.071 103.732 82.0194 103.742 81.9675 103.74Z" fill="url(#paint44_linear_93_1819)"/>
<path d="M114.889 99.3285C114.887 101.439 114.209 103.494 112.954 105.191C111.699 106.888 109.933 108.138 107.915 108.758L107.448 108.889C106.934 109.014 106.412 109.101 105.885 109.151C105.623 109.151 105.361 109.151 105.066 109.151H105.009C104.282 109.151 103.557 109.072 102.848 108.913C102.414 108.819 101.987 108.693 101.571 108.537L101.276 108.422C100.871 108.255 100.477 108.061 100.098 107.841C98.6153 106.972 97.3868 105.729 96.5351 104.236C95.6834 102.743 95.2383 101.053 95.2442 99.3344C95.2501 97.6158 95.7069 95.9288 96.5688 94.4419C97.4308 92.9551 98.6678 91.7204 100.156 90.8613C101.645 90.0021 103.333 89.5486 105.051 89.5459C106.77 89.5432 108.459 89.9916 109.95 90.8461C111.441 91.7006 112.682 92.9314 113.549 94.4156C114.415 95.8998 114.877 97.5853 114.889 99.3039V99.3285Z" fill="url(#paint45_linear_93_1819)"/>
<path d="M101.784 92.8784C103.642 91.5442 105.877 92.4528 106.18 94.3763C106.564 96.881 106.073 98.8864 106.695 100.548C107.28 102.178 107.517 103.912 107.391 105.639C104.853 102.177 102.234 103.609 100.785 100.139C100.319 99.0256 99.9996 94.1635 101.784 92.8784Z" fill="#03053E"/>
<path d="M102.529 101.301H104.747V97.053H103.388L102.529 101.301Z" fill="#EDBA8E"/>
<path d="M100.884 94.9084C100.507 96.6519 100.785 98.4035 101.841 98.7882C102.897 99.173 104.534 98.1989 105.32 96.4718C106.106 94.7447 105.746 93.3041 104.281 92.7967C102.815 92.2892 101.293 92.9931 100.884 94.9084Z" fill="#F1C8A9"/>
<path d="M104.51 102.742L104.313 103.184L104.125 103.617L103.929 104.051L103.437 105.107C103.151 105.705 102.848 106.294 102.537 106.883C102.226 107.473 101.956 107.956 101.637 108.48L101.588 108.57L101.293 108.455C100.888 108.288 100.494 108.094 100.114 107.874C100.114 107.808 100.188 107.743 100.221 107.669C100.499 107.17 100.753 106.646 100.998 106.122C101.32 105.435 101.623 104.739 101.907 104.035C102.062 103.658 102.218 103.274 102.365 102.897L102.472 102.611L102.578 102.349L102.709 102.005L102.946 102.103L103.274 102.242L103.855 102.48L104.51 102.742Z" fill="#EDBA8E"/>
<path d="M105.304 103.699C105.214 104.428 105.004 105.136 104.682 105.795C104.518 106.155 104.33 106.532 104.125 106.9C103.732 107.612 103.307 108.308 102.865 108.946C102.43 108.852 102.004 108.726 101.588 108.57L101.293 108.455C100.888 108.288 100.494 108.094 100.114 107.874C100.661 106.33 101.295 104.819 102.013 103.347C102.154 103.094 102.313 102.85 102.488 102.619L102.668 102.398C102.766 102.292 102.864 102.202 102.963 102.111C103.176 101.899 103.457 101.769 103.757 101.745C104.057 101.721 104.356 101.805 104.6 101.98L104.763 102.095C104.981 102.296 105.144 102.548 105.238 102.828C105.332 103.109 105.355 103.408 105.304 103.699Z" fill="url(#paint46_linear_93_1819)"/>
<path d="M107.44 108.889C106.926 109.014 106.404 109.101 105.877 109.151C105.811 108.905 105.738 108.66 105.656 108.414C105.484 107.874 105.287 107.325 105.075 106.777L104.682 105.787C104.436 105.197 104.191 104.616 103.929 104.043C103.855 103.88 103.79 103.724 103.716 103.568L103.323 102.75L103.863 102.513L104.755 102.12L105.107 101.964L105.459 102.848C105.648 103.298 105.82 103.74 105.983 104.191C106.237 104.87 106.474 105.549 106.704 106.245C106.933 106.941 107.072 107.399 107.227 107.989C107.304 108.283 107.375 108.583 107.44 108.889Z" fill="#F1C8A9"/>
<path d="M107.448 108.922C106.934 109.047 106.412 109.134 105.885 109.184C105.623 109.184 105.361 109.184 105.066 109.184H105.009C104.282 109.184 103.558 109.105 102.848 108.946C102.414 108.852 101.987 108.726 101.571 108.57L101.277 108.455C101.506 107.072 101.702 105.598 101.891 104.035C101.891 103.806 101.948 103.577 101.981 103.339C102.03 102.922 102.087 102.521 102.136 102.054C102.136 101.776 102.21 101.489 102.242 101.236H102.529C103.207 101.22 103.876 101.079 104.502 100.818C104.579 100.787 104.653 100.748 104.723 100.704L104.976 100.548C105.058 100.72 105.14 100.9 105.214 101.08C105.386 101.465 105.541 101.899 105.697 102.251C106 103.069 106.261 103.888 106.515 104.649C106.922 106.048 107.236 107.473 107.457 108.913L107.448 108.922Z" fill="url(#paint47_linear_93_1819)"/>
<path d="M107.448 108.889C106.934 109.014 106.412 109.101 105.885 109.151C105.623 109.151 105.361 109.151 105.066 109.151C104.837 108.537 104.469 107.727 104.109 106.867C103.855 106.278 103.609 105.664 103.421 105.075C103.107 104.297 102.997 103.451 103.102 102.619C103.13 102.477 103.183 102.341 103.257 102.218C103.404 101.979 103.63 101.799 103.896 101.71L104.141 101.645C104.427 101.591 104.721 101.615 104.994 101.713C105.268 101.81 105.51 101.979 105.697 102.202C105.866 102.388 106.019 102.588 106.155 102.799C106.618 103.61 106.968 104.48 107.195 105.386V105.459C107.473 106.482 107.677 107.555 107.833 108.488C107.833 108.57 107.833 108.652 107.874 108.733L107.448 108.889Z" fill="url(#paint48_linear_93_1819)"/>
<path d="M103.781 92.3218C104.223 92.2978 104.664 92.391 105.058 92.5919C105.746 92.9521 106.695 93.8033 106.843 95.7433C107.014 97.5522 106.286 98.4362 107.833 100.147C109.568 101.465 112.662 101.236 112.31 104.24C111.958 107.244 108.021 106.81 107.088 105.336C106.155 103.863 106.27 102.537 105.746 101.604C105.222 100.671 104.322 101.211 103.871 100.188C103.421 99.1647 104.264 97.0447 104.428 96.6682C104.394 96.452 104.299 96.2499 104.154 96.086C104.009 95.9221 103.82 95.8032 103.609 95.7433C102.341 95.3995 101.293 94.1962 101.293 93.8115C101.293 93.4268 102.423 92.3218 103.781 92.3218Z" fill="#03053E"/>
<path d="M103.822 95.9889C103.8 96.0799 103.805 96.1753 103.835 96.2638C103.865 96.3524 103.92 96.4304 103.994 96.4888C104.067 96.5471 104.155 96.5833 104.248 96.593C104.341 96.6028 104.435 96.5857 104.519 96.5438C104.603 96.5019 104.673 96.437 104.721 96.3567C104.769 96.2763 104.793 96.184 104.79 96.0904C104.788 95.9968 104.758 95.9059 104.706 95.8285C104.653 95.7511 104.579 95.6903 104.493 95.6533C104.36 95.6114 104.215 95.623 104.09 95.6856C103.965 95.7482 103.869 95.8569 103.822 95.9889Z" fill="#F1C8A9"/>
<path d="M40.5662 93.6397L46.2959 111.009L44.6179 109.945L57.8126 109.028L59.0077 108.946L59.2369 111.254L58.05 111.418L44.9535 113.137C44.6101 113.18 44.2622 113.107 43.9654 112.929C43.6686 112.751 43.4401 112.478 43.3165 112.155V112.073L36.8419 94.9821L36.1216 93.0995L40.0096 91.7244L40.5662 93.6397Z" fill="#EFBC90"/>
<path d="M66.129 109.552C66.129 110.37 64.492 111.475 62.0364 111.811C59.8018 112.122 58.2139 111.336 58.1157 110.51C57.9028 108.66 66.0799 108.275 66.129 109.552Z" fill="#EFBC90"/>
<path d="M62.5027 108.136C62.3472 107.8 61.3568 107.751 60.1781 108.136C58.9994 108.521 58.5411 109.184 58.6475 109.527C58.9176 110.338 62.7401 108.643 62.5027 108.136Z" fill="#EFBC90"/>
<path d="M52.5906 108.537L53.0653 115.904C53.0653 115.904 44.7982 115.413 42.1134 112.163C38.34 107.596 33.437 94.6137 37.5624 92.6411C42.1543 90.4474 42.4163 101.645 45.8132 106.72C47.2701 108.864 52.5906 108.537 52.5906 108.537Z" fill="url(#paint49_linear_93_1819)"/>
<path d="M42.2851 76.1068C38.6754 73.5202 34.3372 75.2883 33.756 79.0207C33.0112 83.8583 33.9525 87.7626 32.7492 90.9794C31.6189 94.1405 31.1589 97.5023 31.3987 100.851C36.3098 94.1471 41.4093 96.922 44.2168 90.21C45.1254 88.0164 45.7393 78.5869 42.2851 76.1068Z" fill="#03053E"/>
<path d="M40.8528 92.4283H36.5474V84.1857H39.183L40.8528 92.4283Z" fill="#EFBC90"/>
<path d="M44.0288 80.0193C44.7573 83.3999 44.2171 86.8131 42.1789 87.5498C40.1408 88.2865 36.9403 86.412 35.4179 83.0643C33.7808 79.5446 34.5993 76.9171 37.4396 75.9349C40.4436 74.8708 43.2348 76.3114 44.0288 80.0193Z" fill="#F4CAAB"/>
<path d="M49.7421 162.372L46.8527 141.409L43.7996 120.471L43.243 116.681L35.2705 118.4L36.3264 122.075L42.1789 142.399L47.925 162.748L48.1787 163.648L49.8731 163.296L49.7421 162.372Z" fill="#EFBC90"/>
<path d="M32.2419 116.681L32.1027 120.504L31.3333 142.751L21.6092 157.248L21.0935 158.017L22.4359 159.081L23.0744 158.402L35.4914 144.953C35.7226 144.702 35.8761 144.389 35.9334 144.053L35.9825 143.734L39.7068 121.265L40.3371 117.483L32.2419 116.681Z" fill="#EFBC90"/>
<path d="M33.707 115.969H45.0027L49.873 155.275L43.3084 156.233L33.707 115.969Z" fill="url(#paint50_linear_93_1819)"/>
<path d="M30.6049 115.969H41.4586C41.4586 115.969 39.4695 141.098 37.8489 144.045C35.9089 147.589 28.2229 155.807 28.2229 155.807L23.0007 151.812C23.0007 151.812 28.5013 144.028 29.8273 140.353C31.1533 136.678 30.6049 115.969 30.6049 115.969Z" fill="url(#paint51_linear_93_1819)"/>
<path d="M36.4409 91.7244C36.4409 91.7244 38.7574 93.7625 41.082 92.4037C41.082 92.4037 41.9005 100.892 42.9155 104.346C43.9305 107.8 46.648 116.624 46.648 116.624L30.1301 116.919C29.6799 109.159 32.602 100.36 36.4409 91.7244Z" fill="#76D3F4"/>
<path d="M38.1108 97.3149C37.0304 99.3285 35.9826 101.408 35.0331 103.536C34.5502 104.592 34.1 105.656 33.6826 106.712C33.2747 107.746 32.9276 108.804 32.643 109.879C32.5775 110.141 32.5285 110.387 32.4875 110.632L32.3566 111.451C32.2829 112.016 32.2092 112.581 32.1519 113.162C32.0373 114.308 31.9473 115.47 31.8654 116.632C31.7181 118.965 31.6199 121.322 31.5626 123.655V124.785H29.3689V123.655C29.2871 121.273 29.2543 118.908 29.2707 116.518C29.2707 115.331 29.3116 114.136 29.3607 112.932C29.3607 112.327 29.4262 111.721 29.4753 111.115L29.5654 110.19C29.6063 109.855 29.6554 109.519 29.7209 109.2C29.9709 107.978 30.2962 106.772 30.695 105.59C31.0797 104.428 31.5135 103.298 31.9391 102.177C32.8231 99.9342 33.7644 97.7569 34.7958 95.5551L35.6143 93.8444L39.0767 95.6042L38.1108 97.3149Z" fill="#F4CAAB"/>
<path d="M35.8598 90.7421C35.8598 90.7421 27.7891 102.807 29.4344 115.674C29.4344 115.674 28.7386 118.204 37.8898 117.86C47.0409 117.516 47.573 116.223 47.573 116.223C44.3536 108.516 42.2426 100.392 41.303 92.0926C41.303 92.0926 37.8816 92.24 35.8598 90.7421Z" fill="url(#paint52_linear_93_1819)"/>
<path d="M34.9838 118.4L27.9363 119.268C27.9363 119.268 28.2146 111.254 29.2623 106.663C30.572 100.884 33.0275 92.2892 37.4476 93.4597C43.2346 94.9903 34.8447 106.556 34.239 109.748C33.7478 112.319 34.9838 118.4 34.9838 118.4Z" fill="url(#paint53_linear_93_1819)"/>
<path d="M29.1724 131.21C28.4194 131.022 27.8791 129.213 28.2147 126.929C28.5258 124.826 29.6553 123.606 30.4329 123.737C32.16 124.023 30.3265 131.505 29.1724 131.21Z" fill="#F4CAAB"/>
<path d="M31.4151 128.321C31.7588 128.272 32.0617 127.388 32.0044 126.209C31.9471 125.03 31.4969 124.433 31.1859 124.457C30.3755 124.49 30.8912 128.394 31.4151 128.321Z" fill="#F4CAAB"/>
<path d="M56.3558 164.393L55.0216 164.156L50.1514 162.273V162.314C50.1141 162.578 49.9871 162.82 49.7917 163C49.5963 163.181 49.3446 163.288 49.0791 163.305C48.5931 163.4 48.089 163.331 47.6467 163.108C47.6193 163.075 47.5819 163.052 47.5403 163.043C47.2129 163.043 46.9509 163.575 46.9509 164.23C46.9511 164.429 46.9787 164.627 47.0328 164.819V165.727H56.7324V164.811C56.7329 164.707 56.6945 164.606 56.6249 164.529C56.5553 164.452 56.4593 164.403 56.3558 164.393Z" fill="#03053E"/>
<path d="M26.5858 164.27L25.7673 163.206L23.4344 158.533C23.2286 158.7 22.9714 158.792 22.706 158.792C22.4406 158.792 22.1833 158.7 21.9775 158.533C21.5516 158.275 21.2233 157.884 21.0444 157.419C21.0587 157.38 21.0587 157.336 21.0444 157.297C20.807 157.076 20.2258 157.297 19.8084 157.78C19.6702 157.924 19.5568 158.09 19.4728 158.271L18.8589 158.942L26.0292 165.49L26.6513 164.811C26.7068 164.728 26.7307 164.628 26.7187 164.528C26.7066 164.429 26.6595 164.338 26.5858 164.27Z" fill="#03053E"/>
<path d="M38.4135 75.0181C37.5638 74.9695 36.7164 75.1474 35.958 75.5338C34.6156 76.2295 32.8475 77.8911 32.4956 81.6482C32.1682 85.1597 33.5678 86.8704 30.5802 90.1773C27.2079 92.7393 21.1999 92.3054 21.8956 98.0433C22.5914 103.781 30.2037 103.036 32.0126 100.163C33.8216 97.2903 33.6497 94.7365 34.6237 92.9275C35.5978 91.1186 37.3822 92.1745 38.2498 90.1773C39.2812 88.3028 37.4968 84.0874 37.1776 83.3589C37.2467 82.9334 37.4384 82.5372 37.7291 82.2188C38.0198 81.9004 38.3971 81.6737 38.8146 81.5663C41.2702 80.8951 43.3083 78.5705 43.3083 77.8257C43.3083 77.0808 41.0328 75.0181 38.4135 75.0181Z" fill="#03053E"/>
<path d="M37.9201 83.5576C38.3904 83.3469 38.5663 82.7178 38.313 82.1527C38.0597 81.5875 37.4732 81.3002 37.0029 81.511C36.5326 81.7217 36.3567 82.3507 36.61 82.9159C36.8633 83.4811 37.4498 83.7684 37.9201 83.5576Z" fill="#F4CAAB"/>
<path d="M140.476 90.3246H145.019V81.64H142.244L140.476 90.3246Z" fill="#EFBC90"/>
<path d="M137.12 77.2446C136.35 80.8052 136.915 84.3986 139.068 85.1843C141.09 85.9128 144.593 83.9811 146.197 80.4532C147.884 76.7453 147.057 73.9705 144.069 72.9392C140.893 71.8423 137.963 73.332 137.12 77.2446Z" fill="#F4CAAB"/>
<path d="M143.455 71.6785C146.729 71.9322 148.579 74.9526 148.367 77.8911C148.17 80.6496 145.215 82.1229 145.215 82.1229C145.215 82.1229 144.241 79.3235 142.645 78.8488C140.419 78.2267 141.376 76.2377 140.337 76.0167C139.297 75.7957 136.891 74.9362 136.932 73.3565C138.462 73.4301 139.747 71.392 143.455 71.6785Z" fill="#03053E"/>
<path d="M143.128 79.4545C143.08 79.6405 143.087 79.8362 143.147 80.0186C143.207 80.2009 143.318 80.3623 143.467 80.4837C143.616 80.6051 143.796 80.6815 143.986 80.7038C144.177 80.7261 144.37 80.6934 144.543 80.6096C144.716 80.5258 144.861 80.3944 144.961 80.2308C145.062 80.0672 145.113 79.8783 145.11 79.6864C145.107 79.4944 145.049 79.3074 144.943 79.1474C144.836 78.9874 144.687 78.8611 144.511 78.7833C144.239 78.6893 143.94 78.7071 143.681 78.833C143.422 78.9588 143.223 79.1823 143.128 79.4545Z" fill="#F4CAAB"/>
<path d="M143.455 78.8243C143.455 78.8243 143.202 82.6714 142.465 84.1366C141.826 85.4135 139.027 86.7313 137.505 83.7028C137.505 83.7028 139.052 84.022 138.872 83.3754C138.691 82.7287 137.079 82.5978 137.079 82.5978C136.993 82.5933 136.911 82.5615 136.845 82.507C136.779 82.4525 136.732 82.3782 136.711 82.2949C136.683 81.9189 136.728 81.5411 136.842 81.1817C137.812 81.5442 138.819 81.7968 139.846 81.9348C140.869 81.9348 141.802 81.2063 142.67 78.8243H143.455Z" fill="#03053E"/>
<path d="M130.187 163.763L134.353 140.427L137.202 128.894L140.05 117.434L141.024 113.514L149.21 116.125L147.728 119.89L143.414 130.825C141.982 134.476 140.525 138.127 139.109 141.794L132.094 164.27L131.808 165.204L130.023 164.77L130.187 163.763Z" fill="#EFBC90"/>
<path d="M145.272 113.579L145.6 117.598L147.442 140.353L164.68 148.432L165.564 148.849L164.917 150.552L163.976 150.265L144.217 144.29C143.843 144.176 143.508 143.964 143.244 143.676C142.981 143.388 142.799 143.035 142.719 142.653L142.653 142.326L137.627 118.719L136.809 114.766L145.272 113.579Z" fill="#EFBC90"/>
<path d="M150.413 111.091L135.115 114.062L130.326 159.785L135.458 160.489L150.413 111.091Z" fill="url(#paint54_linear_93_1819)"/>
<path d="M151.158 114.16L135.72 112.007C135.72 112.007 138.086 140.656 142.702 144.282C145.272 146.312 159.548 149.733 159.548 149.733L161.086 145.354C161.086 145.354 150.339 141 149.439 139.625C148.538 138.249 151.158 114.16 151.158 114.16Z" fill="url(#paint55_linear_93_1819)"/>
<path d="M140.91 91.3068L130.793 105.762L132.626 105.246L120.7 100.72L119.612 100.311L118.728 102.382L119.783 102.864L131.423 108.111C131.728 108.247 132.069 108.276 132.393 108.195C132.716 108.113 133.003 107.925 133.207 107.661L133.256 107.596L144.02 93.6069L145.207 92.0681L141.998 89.7107L140.91 91.3068Z" fill="#EFBC90"/>
<path d="M146.181 94.2126C144.691 98.1088 137.685 106.761 132.266 108.34C129.049 109.274 122.075 104.379 122.075 104.379L123.09 101.236C123.09 101.236 128.378 104.747 131.218 102.054C134.059 99.3612 139.093 90.7175 141.655 90.2346C143.922 89.8171 146.844 92.461 146.181 94.2126Z" fill="url(#paint56_linear_93_1819)"/>
<path d="M144.7 88.4911C144.7 88.4911 142.318 90.5783 139.936 89.1868C139.936 89.1868 139.117 97.8796 138.061 101.465C137.005 105.05 134.067 114.152 134.067 114.152L151.174 114.34C151.633 106.368 148.637 97.3476 144.7 88.4911Z" fill="#DBC6AF"/>
<path d="M145.526 87.7709C145.526 87.7709 153.802 100.147 152.115 113.35C152.115 113.35 152.828 115.945 143.439 115.584C134.05 115.224 133.51 113.947 133.51 113.947C136.812 106.042 138.975 97.7082 139.936 89.1951C139.936 89.1951 143.447 89.3097 145.526 87.7709Z" fill="url(#paint57_linear_93_1819)"/>
<path d="M142.833 93.9098C144.012 95.9398 145.15 98.0679 146.198 100.188C146.721 101.252 147.229 102.324 147.687 103.397C148.145 104.44 148.536 105.512 148.858 106.605C148.931 106.867 148.997 107.121 149.054 107.375L149.21 108.193C149.308 108.766 149.398 109.347 149.48 109.937C149.635 111.107 149.766 112.294 149.889 113.489C150.118 115.871 150.307 118.277 150.446 120.676L150.511 121.83L152.762 121.773V120.618C152.762 118.163 152.713 115.707 152.615 113.301C152.558 112.073 152.492 110.845 152.394 109.617C152.353 109.003 152.287 108.381 152.222 107.759L152.099 106.818C152.05 106.474 151.985 106.13 151.911 105.811C151.607 104.565 151.23 103.338 150.781 102.136C150.348 100.966 149.881 99.8196 149.39 98.6818C148.408 96.4063 147.368 94.2126 146.238 91.9944L145.346 90.2592L141.859 92.1909L142.833 93.9098Z" fill="#F4CAAB"/>
<path d="M146.909 89.9481C149.897 92.8621 151.616 99.4758 152.885 104.976C154.153 110.477 153.122 118.818 153.122 118.818L149.701 118.965C149.701 118.965 149.504 110.469 148.195 106.793C146.885 103.118 140.918 95.0557 141.499 92.5183C141.974 90.2755 145.575 88.6384 146.909 89.9481Z" fill="url(#paint58_linear_93_1819)"/>
<path d="M114.422 99.4676C114.16 100.221 115.069 101.579 116.739 102.39C118.278 103.135 119.661 102.734 119.972 101.997C120.676 100.343 114.832 98.3053 114.422 99.4676Z" fill="#EFBC90"/>
<path d="M151.665 128.615C152.484 128.558 153.302 126.815 153.376 124.449C153.425 122.272 152.5 120.839 151.69 120.839C149.897 120.831 150.437 128.714 151.665 128.615Z" fill="#F4CAAB"/>
<path d="M149.905 125.3C149.57 125.194 149.414 124.245 149.676 123.066C149.938 121.887 150.495 121.363 150.847 121.429C151.616 121.617 150.421 125.472 149.905 125.3Z" fill="#F4CAAB"/>
<path d="M123.36 166.325C123.36 166.325 124.539 166.014 124.866 165.891C126.168 165.425 129.548 164.041 129.548 164.041C129.719 164.273 129.938 164.466 130.189 164.608C130.44 164.749 130.718 164.835 131.005 164.86C131.466 164.916 131.934 164.854 132.364 164.68C132.7 164.68 132.986 165.204 133.003 165.875C133.01 166.081 132.991 166.287 132.945 166.489V167.422L122.984 167.725V166.775C122.975 166.666 123.009 166.557 123.08 166.473C123.15 166.389 123.251 166.335 123.36 166.325Z" fill="#03053E"/>
<path d="M164.287 157.542C164.287 157.542 164.336 156.323 164.287 155.979C164.213 154.596 163.878 150.961 163.878 150.961C164.147 150.863 164.391 150.708 164.596 150.508C164.801 150.307 164.96 150.066 165.065 149.799C165.256 149.376 165.332 148.91 165.286 148.448C165.376 148.121 165.973 148.006 166.628 148.178C166.825 148.234 167.015 148.314 167.193 148.416L168.093 148.661L165.474 158.279L164.565 158.025C164.468 157.993 164.385 157.926 164.334 157.837C164.282 157.748 164.266 157.643 164.287 157.542Z" fill="#03053E"/>
<path d="M116.591 98.6081C116.82 98.3462 117.753 98.6081 118.728 99.2957C119.702 99.9833 119.964 100.72 119.759 101.006C119.292 101.612 116.272 98.9846 116.591 98.6081Z" fill="#EFBC90"/>
</g>
<defs>
<linearGradient id="paint0_linear_93_1819" x1="164.986" y1="86.9331" x2="178.742" y2="92.8003" gradientUnits="userSpaceOnUse">
<stop stop-color="#FFC1C2"/>
<stop offset="1" stop-color="#FE958F"/>
</linearGradient>
<linearGradient id="paint1_linear_93_1819" x1="164.986" y1="86.9332" x2="178.742" y2="92.8004" gradientUnits="userSpaceOnUse">
<stop stop-color="#FFC1C2"/>
<stop offset="1" stop-color="#FE958F"/>
</linearGradient>
<linearGradient id="paint2_linear_93_1819" x1="164.986" y1="86.9332" x2="178.742" y2="92.8004" gradientUnits="userSpaceOnUse">
<stop stop-color="#FFC1C2"/>
<stop offset="1" stop-color="#FE958F"/>
</linearGradient>
<linearGradient id="paint3_linear_93_1819" x1="21.455" y1="49.2103" x2="32.6115" y2="49.22" gradientUnits="userSpaceOnUse">
<stop stop-color="#FFC1C2"/>
<stop offset="1" stop-color="#FE958F"/>
</linearGradient>
<linearGradient id="paint4_linear_93_1819" x1="20.9981" y1="47.4828" x2="32.1545" y2="47.4925" gradientUnits="userSpaceOnUse">
<stop stop-color="#FFC1C2"/>
<stop offset="1" stop-color="#FE958F"/>
</linearGradient>
<linearGradient id="paint5_linear_93_1819" x1="20.5412" y1="45.7553" x2="31.6977" y2="45.765" gradientUnits="userSpaceOnUse">
<stop stop-color="#FFC1C2"/>
<stop offset="1" stop-color="#FE958F"/>
</linearGradient>
<linearGradient id="paint6_linear_93_1819" x1="7.05731" y1="122.704" x2="13.7026" y2="127.413" gradientUnits="userSpaceOnUse">
<stop stop-color="#FFC1C2"/>
<stop offset="1" stop-color="#FE958F"/>
</linearGradient>
<linearGradient id="paint7_linear_93_1819" x1="7.51889" y1="121.487" x2="14.1575" y2="126.19" gradientUnits="userSpaceOnUse">
<stop stop-color="#FFC1C2"/>
<stop offset="1" stop-color="#FE958F"/>
</linearGradient>
<linearGradient id="paint8_linear_93_1819" x1="7.97384" y1="120.264" x2="14.6125" y2="124.968" gradientUnits="userSpaceOnUse">
<stop stop-color="#FFC1C2"/>
<stop offset="1" stop-color="#FE958F"/>
</linearGradient>
<linearGradient id="paint9_linear_93_1819" x1="101.902" y1="5.68449" x2="113.802" y2="12.3865" gradientUnits="userSpaceOnUse">
<stop stop-color="#FFC1C2"/>
<stop offset="1" stop-color="#FE958F"/>
</linearGradient>
<linearGradient id="paint10_linear_93_1819" x1="102.457" y1="3.56744" x2="114.356" y2="10.2694" gradientUnits="userSpaceOnUse">
<stop stop-color="#FFC1C2"/>
<stop offset="1" stop-color="#FE958F"/>
</linearGradient>
<linearGradient id="paint11_linear_93_1819" x1="103" y1="1.45332" x2="114.9" y2="8.15538" gradientUnits="userSpaceOnUse">
<stop stop-color="#FFC1C2"/>
<stop offset="1" stop-color="#FE958F"/>
</linearGradient>
<linearGradient id="paint12_linear_93_1819" x1="136.342" y1="42.9215" x2="149.16" y2="42.9372" gradientUnits="userSpaceOnUse">
<stop stop-color="#FFC1C2"/>
<stop offset="1" stop-color="#FE958F"/>
</linearGradient>
<linearGradient id="paint13_linear_93_1819" x1="-0.000613788" y1="89.7141" x2="9.6662" y2="89.7259" gradientUnits="userSpaceOnUse">
<stop stop-color="#FFC1C2"/>
<stop offset="1" stop-color="#FE958F"/>
</linearGradient>
<linearGradient id="paint14_linear_93_1819" x1="164.793" y1="130.293" x2="173.642" y2="130.304" gradientUnits="userSpaceOnUse">
<stop stop-color="#FFC1C2"/>
<stop offset="1" stop-color="#FE958F"/>
</linearGradient>
<linearGradient id="paint15_linear_93_1819" x1="58.3367" y1="76.9581" x2="123.925" y2="76.9581" gradientUnits="userSpaceOnUse">
<stop stop-color="#82C48F"/>
<stop offset="1" stop-color="#2DB6C6"/>
</linearGradient>
<linearGradient id="paint16_linear_93_1819" x1="89.9563" y1="73.4548" x2="115.519" y2="73.4548" gradientUnits="userSpaceOnUse">
<stop stop-color="white"/>
<stop offset="1" stop-color="#E7ECF9"/>
</linearGradient>
<linearGradient id="paint17_linear_93_1819" x1="89.9563" y1="76.0741" x2="115.519" y2="76.0741" gradientUnits="userSpaceOnUse">
<stop stop-color="white"/>
<stop offset="1" stop-color="#E7ECF9"/>
</linearGradient>
<linearGradient id="paint18_linear_93_1819" x1="89.9563" y1="78.6933" x2="115.519" y2="78.6933" gradientUnits="userSpaceOnUse">
<stop stop-color="white"/>
<stop offset="1" stop-color="#E7ECF9"/>
</linearGradient>
<linearGradient id="paint19_linear_93_1819" x1="74.6171" y1="85.0942" x2="74.6171" y2="61.9381" gradientUnits="userSpaceOnUse">
<stop stop-color="white"/>
<stop offset="1" stop-color="#E7ECF9"/>
</linearGradient>
<linearGradient id="paint20_linear_93_1819" x1="76.4752" y1="78.7178" x2="74.1833" y2="79.43" gradientUnits="userSpaceOnUse">
<stop stop-color="#82C48F"/>
<stop offset="1" stop-color="#2DB6C6"/>
</linearGradient>
<linearGradient id="paint21_linear_93_1819" x1="76.6879" y1="79.0208" x2="70.8681" y2="78.104" gradientUnits="userSpaceOnUse">
<stop stop-color="#82C48F"/>
<stop offset="1" stop-color="#2DB6C6"/>
</linearGradient>
<linearGradient id="paint22_linear_93_1819" x1="74.1832" y1="79.5365" x2="70.7044" y2="78.456" gradientUnits="userSpaceOnUse">
<stop stop-color="#82C48F"/>
<stop offset="1" stop-color="#2DB6C6"/>
</linearGradient>
<linearGradient id="paint23_linear_93_1819" x1="59.4417" y1="129.819" x2="123.262" y2="129.819" gradientUnits="userSpaceOnUse">
<stop stop-color="#82C48F"/>
<stop offset="1" stop-color="#2DB6C6"/>
</linearGradient>
<linearGradient id="paint24_linear_93_1819" x1="91.7979" y1="127.969" x2="114.586" y2="127.969" gradientUnits="userSpaceOnUse">
<stop stop-color="white"/>
<stop offset="1" stop-color="#E7ECF9"/>
</linearGradient>
<linearGradient id="paint25_linear_93_1819" x1="92.6983" y1="125.235" x2="114.528" y2="125.235" gradientUnits="userSpaceOnUse">
<stop stop-color="white"/>
<stop offset="1" stop-color="#E7ECF9"/>
</linearGradient>
<linearGradient id="paint26_linear_93_1819" x1="91.798" y1="130.711" x2="114.586" y2="130.711" gradientUnits="userSpaceOnUse">
<stop stop-color="white"/>
<stop offset="1" stop-color="#E7ECF9"/>
</linearGradient>
<linearGradient id="paint27_linear_93_1819" x1="91.798" y1="133.453" x2="114.586" y2="133.453" gradientUnits="userSpaceOnUse">
<stop stop-color="white"/>
<stop offset="1" stop-color="#E7ECF9"/>
</linearGradient>
<linearGradient id="paint28_linear_93_1819" x1="74.83" y1="138.143" x2="74.83" y2="114.987" gradientUnits="userSpaceOnUse">
<stop stop-color="white"/>
<stop offset="1" stop-color="#E7ECF9"/>
</linearGradient>
<linearGradient id="paint29_linear_93_1819" x1="77.9484" y1="131.374" x2="75.6565" y2="132.086" gradientUnits="userSpaceOnUse">
<stop stop-color="#82C48F"/>
<stop offset="1" stop-color="#2DB6C6"/>
</linearGradient>
<linearGradient id="paint30_linear_93_1819" x1="76.9007" y1="132.07" x2="71.081" y2="131.153" gradientUnits="userSpaceOnUse">
<stop stop-color="#82C48F"/>
<stop offset="1" stop-color="#2DB6C6"/>
</linearGradient>
<linearGradient id="paint31_linear_93_1819" x1="75.5256" y1="132.937" x2="72.0551" y2="131.857" gradientUnits="userSpaceOnUse">
<stop stop-color="#82C48F"/>
<stop offset="1" stop-color="#2DB6C6"/>
</linearGradient>
<linearGradient id="paint32_linear_93_1819" x1="125.726" y1="51.3545" x2="55.3325" y2="51.3545" gradientUnits="userSpaceOnUse">
<stop stop-color="#82C48F"/>
<stop offset="1" stop-color="#2DB6C6"/>
</linearGradient>
<linearGradient id="paint33_linear_93_1819" x1="66.6692" y1="45.985" x2="87.1569" y2="45.985" gradientUnits="userSpaceOnUse">
<stop stop-color="white"/>
<stop offset="1" stop-color="#E7ECF9"/>
</linearGradient>
<linearGradient id="paint34_linear_93_1819" x1="66.6693" y1="48.5223" x2="87.157" y2="48.5223" gradientUnits="userSpaceOnUse">
<stop stop-color="white"/>
<stop offset="1" stop-color="#E7ECF9"/>
</linearGradient>
<linearGradient id="paint35_linear_93_1819" x1="65.5641" y1="51.0517" x2="86.0519" y2="51.0517" gradientUnits="userSpaceOnUse">
<stop stop-color="white"/>
<stop offset="1" stop-color="#E7ECF9"/>
</linearGradient>
<linearGradient id="paint36_linear_93_1819" x1="64.5901" y1="53.4745" x2="85.0779" y2="53.4745" gradientUnits="userSpaceOnUse">
<stop stop-color="white"/>
<stop offset="1" stop-color="#E7ECF9"/>
</linearGradient>
<linearGradient id="paint37_linear_93_1819" x1="108.21" y1="60.1782" x2="108.21" y2="37.0221" gradientUnits="userSpaceOnUse">
<stop stop-color="white"/>
<stop offset="1" stop-color="#E7ECF9"/>
</linearGradient>
<linearGradient id="paint38_linear_93_1819" x1="106.188" y1="52.7869" x2="104.002" y2="52.1567" gradientUnits="userSpaceOnUse">
<stop stop-color="#82C48F"/>
<stop offset="1" stop-color="#2DB6C6"/>
</linearGradient>
<linearGradient id="paint39_linear_93_1819" x1="104.174" y1="53.3517" x2="109.601" y2="52.2467" gradientUnits="userSpaceOnUse">
<stop stop-color="#82C48F"/>
<stop offset="1" stop-color="#2DB6C6"/>
</linearGradient>
<linearGradient id="paint40_linear_93_1819" x1="110.092" y1="52.4841" x2="107.268" y2="53.4336" gradientUnits="userSpaceOnUse">
<stop stop-color="#82C48F"/>
<stop offset="1" stop-color="#2DB6C6"/>
</linearGradient>
<linearGradient id="paint41_linear_93_1819" x1="121.723" y1="102.611" x2="51.4036" y2="102.611" gradientUnits="userSpaceOnUse">
<stop stop-color="#82C48F"/>
<stop offset="1" stop-color="#2DB6C6"/>
</linearGradient>
<linearGradient id="paint42_linear_93_1819" x1="68.1427" y1="98.0434" x2="92.5103" y2="98.0434" gradientUnits="userSpaceOnUse">
<stop stop-color="white"/>
<stop offset="1" stop-color="#E7ECF9"/>
</linearGradient>
<linearGradient id="paint43_linear_93_1819" x1="66.5955" y1="100.695" x2="89.0805" y2="100.695" gradientUnits="userSpaceOnUse">
<stop stop-color="white"/>
<stop offset="1" stop-color="#E7ECF9"/>
</linearGradient>
<linearGradient id="paint44_linear_93_1819" x1="69.6568" y1="103.347" x2="82.3604" y2="103.347" gradientUnits="userSpaceOnUse">
<stop stop-color="white"/>
<stop offset="1" stop-color="#E7ECF9"/>
</linearGradient>
<linearGradient id="paint45_linear_93_1819" x1="105.025" y1="112.621" x2="105.025" y2="89.4652" gradientUnits="userSpaceOnUse">
<stop stop-color="white"/>
<stop offset="1" stop-color="#E7ECF9"/>
</linearGradient>
<linearGradient id="paint46_linear_93_1819" x1="103.004" y1="105.222" x2="100.818" y2="104.592" gradientUnits="userSpaceOnUse">
<stop stop-color="#82C48F"/>
<stop offset="1" stop-color="#2DB6C6"/>
</linearGradient>
<linearGradient id="paint47_linear_93_1819" x1="98.6982" y1="106.253" x2="113.988" y2="103.143" gradientUnits="userSpaceOnUse">
<stop stop-color="#82C48F"/>
<stop offset="1" stop-color="#2DB6C6"/>
</linearGradient>
<linearGradient id="paint48_linear_93_1819" x1="106.9" y1="104.919" x2="104.084" y2="105.869" gradientUnits="userSpaceOnUse">
<stop stop-color="#82C48F"/>
<stop offset="1" stop-color="#2DB6C6"/>
</linearGradient>
<linearGradient id="paint49_linear_93_1819" x1="54.6533" y1="101.219" x2="42.5718" y2="105.115" gradientUnits="userSpaceOnUse">
<stop stop-color="#FFC1C2"/>
<stop offset="0.25" stop-color="#FCA7A5"/>
<stop offset="0.54" stop-color="#F98F8C"/>
<stop offset="0.79" stop-color="#F8817C"/>
<stop offset="1" stop-color="#F77C77"/>
</linearGradient>
<linearGradient id="paint50_linear_93_1819" x1="55.7418" y1="134.386" x2="39.8378" y2="135.974" gradientUnits="userSpaceOnUse">
<stop stop-color="#82C48F"/>
<stop offset="1" stop-color="#2DB6C6"/>
</linearGradient>
<linearGradient id="paint51_linear_93_1819" x1="39.8379" y1="136.989" x2="28.092" y2="134.402" gradientUnits="userSpaceOnUse">
<stop stop-color="#82C48F"/>
<stop offset="1" stop-color="#2DB6C6"/>
</linearGradient>
<linearGradient id="paint52_linear_93_1819" x1="47.7858" y1="104.109" x2="28.8696" y2="104.444" gradientUnits="userSpaceOnUse">
<stop stop-color="#FFC1C2"/>
<stop offset="0.25" stop-color="#FCA7A5"/>
<stop offset="0.54" stop-color="#F98F8C"/>
<stop offset="0.79" stop-color="#F8817C"/>
<stop offset="1" stop-color="#F77C77"/>
</linearGradient>
<linearGradient id="paint53_linear_93_1819" x1="38.0288" y1="107.252" x2="29.336" y2="105.803" gradientUnits="userSpaceOnUse">
<stop stop-color="#FFC1C2"/>
<stop offset="1" stop-color="#FE958F"/>
</linearGradient>
<linearGradient id="paint54_linear_93_1819" x1="125.399" y1="135.704" x2="142.801" y2="135.786" gradientUnits="userSpaceOnUse">
<stop stop-color="#82C48F"/>
<stop offset="1" stop-color="#2DB6C6"/>
</linearGradient>
<linearGradient id="paint55_linear_93_1819" x1="138.618" y1="133.887" x2="154.8" y2="128.435" gradientUnits="userSpaceOnUse">
<stop stop-color="#82C48F"/>
<stop offset="1" stop-color="#2DB6C6"/>
</linearGradient>
<linearGradient id="paint56_linear_93_1819" x1="125.718" y1="94.4991" x2="144.937" y2="103.241" gradientUnits="userSpaceOnUse">
<stop stop-color="#FFC1C2"/>
<stop offset="1" stop-color="#FE958F"/>
</linearGradient>
<linearGradient id="paint57_linear_93_1819" x1="133.126" y1="103.462" x2="150.593" y2="101.121" gradientUnits="userSpaceOnUse">
<stop stop-color="#FE958F"/>
<stop offset="1" stop-color="#F77C77"/>
</linearGradient>
<linearGradient id="paint58_linear_93_1819" x1="146.418" y1="104.968" x2="152.795" y2="103.028" gradientUnits="userSpaceOnUse">
<stop stop-color="#FFC1C2"/>
<stop offset="1" stop-color="#FE958F"/>
</linearGradient>
<clipPath id="clip0_93_1819">
<rect width="186.739" height="167.708" fill="white"/>
</clipPath>
</defs>
</svg>
