<svg width="72" height="72" viewBox="0 0 72 72" fill="none" xmlns="http://www.w3.org/2000/svg">
<circle cx="36" cy="36" r="36" fill="#F1FEF2"/>
<path d="M51.6747 26.4358C51.6296 25.4422 51.6296 24.4937 51.6296 23.5453C51.6296 22.7775 51.0424 22.1904 50.2747 22.1904C44.6292 22.1904 40.3387 20.5645 36.7708 17.087C36.2288 16.5902 35.4159 16.5902 34.8739 17.087C31.306 20.5645 27.0155 22.1904 21.3701 22.1904C20.6023 22.1904 20.0152 22.7775 20.0152 23.5453C20.0152 24.4937 20.0152 25.4422 19.97 26.4358C19.7894 35.9201 19.5184 48.9271 35.3707 54.3919L35.8224 54.4822L36.274 54.3919C52.0812 48.9271 51.8554 35.9652 51.6747 26.4358ZM34.7385 39.5783C34.4675 39.8041 34.1513 39.9396 33.79 39.9396H33.7449C33.3836 39.9396 33.0222 39.759 32.7964 39.488L28.5962 34.8362L30.6286 33.0296L33.9255 36.6879L41.242 29.7327L43.0937 31.7199L34.7385 39.5783Z" fill="#7CBCA6"/>
</svg>
