<svg width="72" height="72" viewBox="0 0 72 72" fill="none" xmlns="http://www.w3.org/2000/svg">
<circle cx="36" cy="36" r="36" fill="#F1FEF2"/>
<path d="M53.6329 50.2904C52.6259 47.2934 48.6124 45.4174 45.7509 44.1599C44.6299 43.6689 41.5264 42.8359 41.1534 41.4244C41.0199 40.9159 41.0379 40.4364 41.1474 39.9769C40.9749 40.0099 40.7999 40.0294 40.6189 40.0294H38.7544C37.2659 40.0294 36.0564 38.8184 36.0564 37.3309C36.0564 35.8444 37.2664 34.6359 38.7544 34.6359H40.6189C41.2349 34.6359 41.8189 34.8444 42.2899 35.2164C42.9804 35.1244 43.6464 34.9769 44.2674 34.7834C45.0829 33.0749 45.7189 31.0319 45.8614 29.2734C46.4699 21.7494 41.8574 17.3474 35.2439 18.1084C30.4354 18.6619 27.5629 22.2474 27.2524 26.8634C26.9384 31.5684 28.6829 35.0434 30.5359 37.5924C31.3474 38.7069 32.1999 39.4234 32.0689 40.7664C31.9169 42.3544 30.2189 42.7969 29.0044 43.2849C27.5654 43.8629 26.0154 44.7399 25.2834 45.1454C22.7619 46.5379 19.9944 48.2149 19.3724 50.5089C17.9949 55.5929 22.6469 57.1329 26.4874 57.8439C29.7834 58.4519 33.4999 58.4999 36.5569 58.4999C42.0864 58.4999 52.0294 58.2784 53.6329 54.1219C54.0889 52.9424 53.8934 51.0629 53.6329 50.2904Z" fill="#7CBCA6"/>
<path d="M41.7989 36.5715C41.5459 36.186 41.1134 35.93 40.6199 35.93H38.7554C37.9774 35.93 37.3499 36.5585 37.3499 37.3325C37.3499 38.1095 37.9774 38.739 38.7554 38.739H40.6199C41.1644 38.739 41.6264 38.4285 41.8594 37.9795C44.4589 37.775 46.7199 36.981 48.3069 35.8085C48.6714 36.0435 49.1024 36.181 49.5674 36.181H49.6844C50.9804 36.181 52.0284 35.132 52.0284 33.8345V29.1505C52.0284 28.2175 51.4814 27.4125 50.6924 27.0385C50.3484 19.517 44.1219 13.5 36.5159 13.5C28.9099 13.5 22.6824 19.517 22.3399 27.0385C21.5494 27.413 21.0029 28.2175 21.0029 29.1505V33.8345C21.0029 35.132 22.0519 36.181 23.3449 36.181H23.4634C24.7574 36.181 25.8069 35.132 25.8069 33.8345V29.1505C25.8069 28.231 25.2754 27.438 24.5029 27.0545C24.8374 20.717 30.0964 15.6655 36.5159 15.6655C42.9329 15.6655 48.1944 20.717 48.5274 27.0545C47.7559 27.4385 47.2249 28.231 47.2249 29.1505V33.8345C47.2249 34.1455 47.2854 34.435 47.3919 34.7055C46.0259 35.683 44.0374 36.3795 41.7989 36.5715Z" fill="#7CBCA6"/>
</svg>
